<?xml version="1.0" encoding="UTF-8"?>
<svg width="167px" height="250px" viewBox="0 0 167 250" version="1.1" xmlns="http://www.w3.org/2000/svg" xmlns:xlink="http://www.w3.org/1999/xlink">
    <!-- Generator: Sketch 63 (92445) - https://sketch.com -->
    <title>Abstract shape 2</title>
    <desc>Created with Sketch.</desc>
    <defs>
        <polygon id="path-1" points="0 0.395032355 251.833752 0.395032355 251.833752 277 0 277"></polygon>
    </defs>
    <g id="Page-1" stroke="none" stroke-width="1" fill="none" fill-rule="evenodd">
        <g id="Komunitii-Homepage" transform="translate(-1124.000000, -4933.000000)">
            <g id="Oval-+-Oval-+-Oval-Mask" transform="translate(121.000000, 4933.373023)">
                <g id="Abstract-shape-2" transform="translate(1161.592346, 72.524887) rotate(-45.000000) translate(-1161.592346, -72.524887) translate(1035.092346, -65.975113)">
                    <g id="Group-3" transform="translate(0.350467, 0.000000)">
                        <mask id="mask-2" fill="white">
                            <use xlink:href="#path-1"></use>
                        </mask>
                        <g id="Clip-2"></g>
                        <path d="M176.304026,40.1058383 C152.395952,29.2908691 127.823198,19.9840111 103.37794,10.5044556 C85.0116983,3.39991852 65.1274021,-3.08564321 45.5133978,2.51420247 C11.4192332,12.2502395 7.39715535,65.7864741 4.44944487,93.9481407 C-0.383508353,140.372999 2.23101225,186.999622 0.0040798761,233.491165 C-0.0367188849,234.419628 0.211473578,235.047153 0.592262013,235.448974 C0.325370119,248.751814 2.13071529,261.656252 8.83701163,271.223011 C22.1119085,290.120567 61.1716223,257.280678 71.7996995,249.425505 C100.681822,228.067437 128.708871,207.352283 158.925454,187.700672 C177.606186,175.562258 195.725936,162.678338 213.684191,149.488351 C226.399804,140.190042 240.834066,129.648653 247.878652,115.058277 C268.463327,72.3524 203.333205,52.3571037 176.304026,40.1058383" id="Fill-1" fill="#EFCA02" mask="url(#mask-2)"></path>
                    </g>
                    <path d="M41.9137666,241.905555 C45.3599699,242.783341 52.5037929,237.284129 47.7897317,236.094768 C44.3291618,235.2154 37.1979096,240.714612 41.9137666,241.905555" id="Fill-4" fill="#FFFBE9"></path>
                    <path d="M25.6784006,245.6611 C25.7711826,245.774072 25.8604633,245.891819 25.9549959,246.001609 C27.4465097,247.976245 30.6956291,246.583975 32.3166876,245.562447 C33.5648676,244.766865 34.4734306,243.746928 34.3368836,242.306923 C34.2703606,241.746833 33.8484653,241.543164 33.3460422,241.458832 C32.6405492,241.0324 31.6462066,240.897151 30.8251737,241.078544 C30.5748375,241.143782 30.3069952,241.189926 30.0496566,241.253572 C28.5686463,241.579761 24.115112,243.592585 25.6784006,245.6611" id="Fill-6" fill="#FFFBE9"></path>
                    <path d="M22.3759952,226.173987 C22.3885261,226.322901 22.413588,226.479261 22.4314893,226.617006 C22.6248233,228.342547 24.495509,228.789289 25.902551,228.47657 C25.970576,228.547304 26.040391,228.623623 26.1281074,228.69808 C27.0750861,229.688358 29.9231827,228.040997 29.6457126,226.667265 C29.6367619,226.613284 29.6152804,226.563025 29.60991,226.510905 C30.1523193,225.980399 30.6625063,225.418249 30.9721988,224.655064 C33.5911588,218.530976 21.7297583,220.837282 22.3759952,226.173987" id="Fill-8" fill="#FFFBE9"></path>
                    <path d="M37.4020714,206.379627 C37.3893701,206.586126 37.5163831,206.782225 37.7268617,206.96644 C37.8429878,207.094202 38.0425796,207.189281 38.2222122,207.303672 C38.205882,207.312586 38.209511,207.322985 38.1913662,207.336356 C38.6340971,208.264858 40.5846534,208.027161 41.4174955,207.764209 C43.1539442,207.204137 44.9502703,206.395968 45.9119399,205.027727 C46.9842922,203.516868 46.0081069,202.071376 43.8742891,202.001553 C41.2777812,201.928758 36.8214407,204.430515 37.4020714,206.379627" id="Fill-10" fill="#FFFBE9"></path>
                    <path d="M44.5661917,224.338788 C44.9326288,225.177403 46.1014689,225.087973 47.15568,224.780875 C47.326684,224.789312 47.4695005,224.796061 47.6536586,224.801123 C49.237794,224.723505 54.0916752,222.595752 51.6994992,220.721101 C49.1908149,218.738461 43.1361478,221.139565 44.5661917,224.338788" id="Fill-12" fill="#FFFBE9"></path>
                    <path d="M97.8461439,184.137624 C97.8857914,184.207965 97.8909628,184.278306 98.0754099,184.480312 C98.3943136,184.893341 98.5856558,185.3713 98.9493785,185.784329 C99.4354912,186.305575 100.573202,185.762685 100.969677,185.409176 C102.459043,184.061872 103.767411,182.496329 104.868921,180.793712 C106.082479,178.941394 104.851683,177.060218 102.855518,177.002502 C100.300841,176.933965 98.1598762,178.277662 96.8049663,180.501525 C95.9258262,181.969672 96.3481582,183.493731 97.8461439,184.137624" id="Fill-16" fill="#FFFBE9"></path>
                    <path d="M34.7324722,44.9175154 C36.5348139,44.5934807 42.6993192,40.55435 39.3908869,38.184375 C39.1922035,37.9903309 39.17269,38.110902 39.3199285,38.5347847 C38.7504879,35.1606787 34.1311003,38.1919107 33.1855805,39.6425313 C33.4410305,39.1922738 33.4374826,39.1074972 33.162519,39.3674786 C30.3561169,41.5132668 30.7570315,45.6334061 34.7324722,44.9175154" id="Fill-18" fill="#FFFBE9"></path>
                    <path d="M43.8794021,18.3631876 C46.5059788,20.6499417 53.6214413,16.1813018 50.6288507,14.3531507 C48.245019,12.9069079 41.4121269,16.2329533 43.8794021,18.3631876" id="Fill-20" fill="#FFFBE9"></path>
                    <path d="M76.1162149,31.6729859 L76.5253861,31.4835139 C77.6459081,30.9673146 80.0517773,29.4709332 79.1539139,27.8029827 C78.321113,26.2260384 75.6680061,27.3151295 74.7441176,28.1580562 C74.6298967,28.256522 74.5041091,28.3534959 74.3971173,28.4564373 C72.4134319,30.2273294 73.3951537,32.9425977 76.1162149,31.6729859" id="Fill-22" fill="#FFFBE9"></path>
                    <path d="M52.4777792,75.6878917 C52.4689542,75.7652303 52.4318892,75.8524418 52.4283592,75.9133253 C52.4230642,76.0301558 52.3506992,76.1387589 52.3506992,76.2671079 C52.3330492,77.5308523 53.3249792,77.9767829 54.6010742,77.9504549 C54.6822642,77.9603279 54.7299192,78.0031109 54.8093442,77.9998199 C54.9223042,78.0014654 55.0264392,77.9619734 55.1411642,77.9603279 C55.1517542,77.9603279 55.1517542,77.9603279 55.1605792,77.9553914 C57.3121142,77.9043809 59.7672292,76.671901 60.7962242,74.9046335 C61.8216892,73.1423025 61.2233542,71.5181935 60.6091342,69.7426985 C60.0072692,68.0050499 56.4843292,69.760799 55.8277492,70.5177292 C54.5675392,72.0069071 52.8131292,73.7248096 52.4777792,75.6878917" id="Fill-24" fill="#FFFBE9"></path>
                    <path d="M50.0060065,44.812492 C52.5190701,45.5391799 55.4952922,44.0474657 57.1558011,42.1653965 C58.4543603,40.6736823 59.1936984,37.9202847 56.6892118,37.1901116 C54.188156,36.4547104 51.1964953,37.9621085 49.5445634,39.8354645 C48.2477197,41.3219506 47.5083815,44.0753482 50.0060065,44.812492" id="Fill-26" fill="#FFFBE9"></path>
                    <path d="M71.676638,53.8597615 C73.6852533,54.4051056 76.0766204,53.2795408 77.3813051,51.8717922 C78.4347048,50.7525687 79.0271381,48.6885049 77.0235153,48.1463314 C75.0082434,47.588305 72.625197,48.7075285 71.3138558,50.1279595 C70.2637844,51.2297447 69.6780076,53.3096616 71.676638,53.8597615" id="Fill-28" fill="#FFFBE9"></path>
                    <path d="M74.9400729,65.4685516 C75.0713537,65.4202385 75.2009514,65.3492786 75.3423306,65.2934166 C76.8419609,64.632131 79.7436024,61.9764202 77.5707375,60.5406152 C75.1975852,58.9704395 71.3938092,61.1399997 70.0978324,62.9774073 C70.0406075,63.0589357 69.9716009,63.1419738 69.9093267,63.2401098 C67.6102302,66.5238909 73.0247202,66.3110113 74.9400729,65.4685516" id="Fill-30" fill="#FFFBE9"></path>
                    <path d="M36.7374339,63.9047766 C39.8040145,64.7870595 46.154076,59.2784696 41.9624359,58.0956865 C38.8870382,57.2116565 32.551084,62.713258 36.7374339,63.9047766" id="Fill-32" fill="#FFFBE9"></path>
                    <path d="M159.356176,115.97177 C159.787103,115.923877 160.210049,115.930263 160.632995,115.99412 C162.075799,116.070749 167.214992,113.118939 164.639012,111.500153 C164.375668,111.346895 164.110728,111.179269 163.860153,110.981311 C162.10772,108.928294 158.741708,110.48003 157.24783,112.14192 C155.326219,114.308284 156.705183,116.259129 159.356176,115.97177" id="Fill-38" fill="#FFFBE9"></path>
                    <path d="M173.104778,88.6498147 C174.711679,89.9129523 179.074945,87.4351463 179.745186,86.3409167 C180.098738,85.7548796 180.445587,85.1879364 180.32662,84.5123047 C180.00658,82.8056002 177.511609,82.7571309 176.048809,83.3255428 C174.465366,83.9321426 173.386279,84.6768063 172.149685,85.7005353 C170.644995,86.9357664 171.435878,88.4838443 173.104778,88.6498147" id="Fill-40" fill="#FFFBE9"></path>
                    <path d="M144.012199,104.139395 C145.422556,105.22969 147.340434,105.008156 149.075328,104.92128 C149.981616,104.87929 153.228716,103.770172 152.123908,102.545219 C151.302207,101.631571 151.773477,100.761362 151.108866,99.8578508 C149.701961,97.9494722 145.911088,99.6580357 144.650916,100.809144 C144.545614,100.913396 144.440312,101.00172 144.33501,101.098731 C143.390745,101.980524 142.846972,103.225748 144.012199,104.139395" id="Fill-46" fill="#FFFBE9"></path>
                    <path d="M118.528693,68.875081 C118.571655,68.95629 118.606025,69.0295373 118.642114,69.1043769 C119.348418,70.5629536 121.742291,69.9674212 123.206454,69.2317635 C125.361456,68.5980151 128.891258,66.520021 126.612525,64.8512564 C124.340666,63.1952304 120.987869,64.1283373 119.298582,66.1649308 C118.640395,66.9658741 118.040638,67.8512111 118.528693,68.875081" id="Fill-50" fill="#FFFBE9"></path>
                    <path d="M96.7357779,110.922248 C99.8172161,111.649097 106.145438,107.06591 101.966707,106.076588 C98.885269,105.355951 92.5532892,109.932925 96.7357779,110.922248" id="Fill-52" fill="#FFFBE9"></path>
                    <path d="M119.410059,118.954383 C119.805158,118.895966 120.206335,118.844226 120.602954,118.785809 C121.447857,118.662299 124.096539,117.024959 123.148302,115.681371 C122.982664,115.447704 122.832223,115.214037 122.662026,114.980369 C119.989031,111.183275 114.296568,119.692104 119.410059,118.954383" id="Fill-54" fill="#FFFBE9"></path>
                    <path d="M73.8422947,122.810702 C76.1089809,123.539698 78.7858757,122.057895 80.2661936,120.165804 C81.4449353,118.676675 82.1097002,115.927373 79.8592278,115.191051 C77.594163,114.452897 74.9156468,115.964006 73.4304647,117.832286 C72.2582086,119.328741 71.5902009,122.07438 73.8422947,122.810702" id="Fill-56" fill="#FFFBE9"></path>
                </g>
            </g>
        </g>
    </g>
</svg>