<?xml version="1.0" encoding="UTF-8"?>
<svg width="160px" height="194px" viewBox="0 0 160 194" version="1.1" xmlns="http://www.w3.org/2000/svg" xmlns:xlink="http://www.w3.org/1999/xlink">
    <!-- Generator: Sketch 63 (92445) - https://sketch.com -->
    <title>Abstract shape 1</title>
    <desc>Created with Sketch.</desc>
    <defs>
        <polygon id="path-1" points="0 0.395032355 251.833752 0.395032355 251.833752 277 0 277"></polygon>
    </defs>
    <g id="Page-1" stroke="none" stroke-width="1" fill="none" fill-rule="evenodd">
        <g id="Komunitii-Homepage" transform="translate(-121.000000, -5161.000000)">
            <g id="Oval-+-Oval-+-Oval-Mask" transform="translate(121.000000, 4933.373023)">
                <g id="Abstract-shape-1" transform="translate(86.500000, 353.500000) rotate(-45.000000) translate(-86.500000, -353.500000) translate(-40.000000, 215.000000)">
                    <g id="Group-3" transform="translate(0.350467, 0.000000)">
                        <mask id="mask-2" fill="white">
                            <use xlink:href="#path-1"></use>
                        </mask>
                        <g id="Clip-2"></g>
                        <path d="M176.304026,40.1058383 C152.395952,29.2908691 127.823198,19.9840111 103.37794,10.5044556 C85.0116983,3.39991852 65.1274021,-3.08564321 45.5133978,2.51420247 C11.4192332,12.2502395 7.39715535,65.7864741 4.44944487,93.9481407 C-0.383508353,140.372999 2.23101225,186.999622 0.0040798761,233.491165 C-0.0367188849,234.419628 0.211473578,235.047153 0.592262013,235.448974 C0.325370119,248.751814 2.13071529,261.656252 8.83701163,271.223011 C22.1119085,290.120567 61.1716223,257.280678 71.7996995,249.425505 C100.681822,228.067437 128.708871,207.352283 158.925454,187.700672 C177.606186,175.562258 195.725936,162.678338 213.684191,149.488351 C226.399804,140.190042 240.834066,129.648653 247.878652,115.058277 C268.463327,72.3524 203.333205,52.3571037 176.304026,40.1058383" id="Fill-1" fill="#EFCA02" mask="url(#mask-2)"></path>
                    </g>
                    <path d="M97.8461439,184.137624 C97.8857914,184.207965 97.8909628,184.278306 98.0754099,184.480312 C98.3943136,184.893341 98.5856558,185.3713 98.9493785,185.784329 C99.4354912,186.305575 100.573202,185.762685 100.969677,185.409176 C102.459043,184.061872 103.767411,182.496329 104.868921,180.793712 C106.082479,178.941394 104.851683,177.060218 102.855518,177.002502 C100.300841,176.933965 98.1598762,178.277662 96.8049663,180.501525 C95.9258262,181.969672 96.3481582,183.493731 97.8461439,184.137624" id="Fill-16" fill="#FFFBE9"></path>
                    <path d="M74.9400729,65.4685516 C75.0713537,65.4202385 75.2009514,65.3492786 75.3423306,65.2934166 C76.8419609,64.632131 79.7436024,61.9764202 77.5707375,60.5406152 C75.1975852,58.9704395 71.3938092,61.1399997 70.0978324,62.9774073 C70.0406075,63.0589357 69.9716009,63.1419738 69.9093267,63.2401098 C67.6102302,66.5238909 73.0247202,66.3110113 74.9400729,65.4685516" id="Fill-30" fill="#FFFBE9"></path>
                    <path d="M194.414879,107.030498 C194.847061,109.368221 197.193719,109.287253 199.380377,108.510309 C202.155539,108.088245 208.998732,104.541177 205.258056,101.889921 C201.782207,99.4505584 193.541319,102.30854 194.414879,107.030498" id="Fill-34" fill="#FFFBE9"></path>
                    <path d="M191.522807,126.166946 C191.493532,126.151755 191.453472,126.135045 191.421116,126.113778 C191.481206,126.211 191.562867,126.258092 191.627579,126.32797 C191.656853,126.352276 191.659935,126.388734 191.684587,126.416078 C191.398005,126.128969 192.003525,126.829272 192.015851,126.835348 C192.288566,127.057136 192.678379,127.025235 193.031214,126.912822 C193.242299,126.944723 193.444139,126.947761 193.652142,126.961433 C194.764573,127.038907 198.832189,124.663042 196.781433,123.505491 C195.123571,122.569728 193.140609,122.966212 191.871019,124.421506 C191.410331,124.95167 191.162268,125.597285 191.522807,126.166946" id="Fill-36" fill="#FFFBE9"></path>
                    <path d="M159.356176,115.97177 C159.787103,115.923877 160.210049,115.930263 160.632995,115.99412 C162.075799,116.070749 167.214992,113.118939 164.639012,111.500153 C164.375668,111.346895 164.110728,111.179269 163.860153,110.981311 C162.10772,108.928294 158.741708,110.48003 157.24783,112.14192 C155.326219,114.308284 156.705183,116.259129 159.356176,115.97177" id="Fill-38" fill="#FFFBE9"></path>
                    <path d="M173.104778,88.6498147 C174.711679,89.9129523 179.074945,87.4351463 179.745186,86.3409167 C180.098738,85.7548796 180.445587,85.1879364 180.32662,84.5123047 C180.00658,82.8056002 177.511609,82.7571309 176.048809,83.3255428 C174.465366,83.9321426 173.386279,84.6768063 172.149685,85.7005353 C170.644995,86.9357664 171.435878,88.4838443 173.104778,88.6498147" id="Fill-40" fill="#FFFBE9"></path>
                    <path d="M176.495234,105.921534 C177.27352,107.70918 180.40616,106.894118 181.689763,106.17877 C182.869378,105.519784 184.497441,104.415692 184.339834,102.998004 C184.323586,102.761 184.294339,102.532667 184.209849,102.291328 C183.621666,99.8562567 179.306161,101.375105 178.224036,102.694523 C178.035557,102.922857 177.814583,103.142519 177.600107,103.378077 C176.70321,104.048625 176.046785,104.905597 176.495234,105.921534" id="Fill-42" fill="#FFFBE9"></path>
                    <path d="M167.358117,128.633 C167.592264,131.074487 172.228363,129.672121 173.463936,128.810157 C174.789565,127.861848 175.920673,126.807841 176.286301,125.357836 C176.860861,123.081597 173.431516,124.138582 171.797894,125.134529 C169.695979,125.539459 167.194215,126.781044 167.358117,128.633" id="Fill-44" fill="#FFFBE9"></path>
                    <path d="M144.012199,104.139395 C145.422556,105.22969 147.340434,105.008156 149.075328,104.92128 C149.981616,104.87929 153.228716,103.770172 152.123908,102.545219 C151.302207,101.631571 151.773477,100.761362 151.108866,99.8578508 C149.701961,97.9494722 145.911088,99.6580357 144.650916,100.809144 C144.545614,100.913396 144.440312,101.00172 144.33501,101.098731 C143.390745,101.980524 142.846972,103.225748 144.012199,104.139395" id="Fill-46" fill="#FFFBE9"></path>
                    <path d="M192.453765,75.1928417 C191.725992,78.2903763 195.026091,78.2865663 196.645344,77.6922054 C198.750859,76.9130593 200.731567,75.1852217 201.259972,72.5639378 C201.96181,69.0796877 198.41858,69.7407237 196.251472,71.0818456 C194.581972,71.7238316 192.883296,73.337369 192.453765,75.1928417" id="Fill-48" fill="#FFFBE9"></path>
                    <path d="M118.528693,68.875081 C118.571655,68.95629 118.606025,69.0295373 118.642114,69.1043769 C119.348418,70.5629536 121.742291,69.9674212 123.206454,69.2317635 C125.361456,68.5980151 128.891258,66.520021 126.612525,64.8512564 C124.340666,63.1952304 120.987869,64.1283373 119.298582,66.1649308 C118.640395,66.9658741 118.040638,67.8512111 118.528693,68.875081" id="Fill-50" fill="#FFFBE9"></path>
                    <path d="M96.7357779,110.922248 C99.8172161,111.649097 106.145438,107.06591 101.966707,106.076588 C98.885269,105.355951 92.5532892,109.932925 96.7357779,110.922248" id="Fill-52" fill="#FFFBE9"></path>
                    <path d="M119.410059,118.954383 C119.805158,118.895966 120.206335,118.844226 120.602954,118.785809 C121.447857,118.662299 124.096539,117.024959 123.148302,115.681371 C122.982664,115.447704 122.832223,115.214037 122.662026,114.980369 C119.989031,111.183275 114.296568,119.692104 119.410059,118.954383" id="Fill-54" fill="#FFFBE9"></path>
                    <path d="M73.8422947,122.810702 C76.1089809,123.539698 78.7858757,122.057895 80.2661936,120.165804 C81.4449353,118.676675 82.1097002,115.927373 79.8592278,115.191051 C77.594163,114.452897 74.9156468,115.964006 73.4304647,117.832286 C72.2582086,119.328741 71.5902009,122.07438 73.8422947,122.810702" id="Fill-56" fill="#FFFBE9"></path>
                </g>
            </g>
        </g>
    </g>
</svg>