<?xml version="1.0" encoding="UTF-8"?>
<svg width="231px" height="146px" viewBox="0 0 231 146" version="1.1" xmlns="http://www.w3.org/2000/svg" xmlns:xlink="http://www.w3.org/1999/xlink">
    <!-- Generator: Sketch 63 (92445) - https://sketch.com -->
    <title>bus 2</title>
    <desc>Created with Sketch.</desc>
    <defs>
        <polygon id="path-1" points="0 0.01279031 249.768792 0.01279031 249.768792 119.74281 0 119.74281"></polygon>
    </defs>
    <g id="Page-1" stroke="none" stroke-width="1" fill="none" fill-rule="evenodd">
        <g id="Komunitii-About-us" transform="translate(0.000000, -1165.000000)">
            <g id="bus-2" transform="translate(106.000000, 1238.000000) scale(-1, 1) translate(-106.000000, -1238.000000) translate(-19.000000, 1165.000000)">
                <g id="Group-3" transform="translate(0.500000, 0.000000)">
                    <mask id="mask-2" fill="white">
                        <use xlink:href="#path-1"></use>
                    </mask>
                    <g id="Clip-2"></g>
                    <path d="M142.082243,0.118721649 C169.809478,0.117484536 197.537127,0.0972783505 225.264363,0.126969072 C237.035472,0.139340206 246.536714,7.49521649 249.105836,18.5558351 C249.521813,20.3463505 249.737459,22.224701 249.739942,24.0626392 C249.778022,51.5500619 249.771813,79.0374845 249.758568,106.52532 C249.755671,112.084495 247.335555,116.303052 242.44524,119.02099 C240.102111,120.32367 237.826449,119.816041 236.650538,117.877897 C235.404263,115.823876 236.02678,113.100577 238.231664,111.788412 C240.421647,110.484907 241.336382,108.675423 241.334313,106.171505 C241.309065,79.028 241.351697,51.8840825 241.307409,24.7405773 C241.291267,14.9665567 234.674959,8.48779381 224.893502,8.4865567 C170.404677,8.48160825 115.915439,8.47501031 61.4266142,8.48903093 C40.7229719,8.49439175 22.8748758,21.1042887 15.7370447,40.496866 C10.7461507,54.0560412 8.03133278,67.959134 8.3334851,82.4432577 C8.49863411,90.3426392 8.40136589,98.2482062 8.34093543,106.150474 C8.32148179,108.661402 9.22131623,110.471299 11.4121275,111.778515 C13.6079056,113.089031 14.2279387,115.637485 13.0338162,117.651505 C11.8310017,119.679546 9.40633278,120.265526 7.08555464,118.961608 C2.74076987,116.519546 -0.0166804636,112.759959 -0.000198314277,107.823876 C0.046647351,93.885732 -0.00343543046,79.9203711 0.870736755,66.0209897 C1.60335265,54.3772784 4.84590232,43.0494433 10.0048427,32.5925361 C20.3661838,11.5917113 37.6757864,0.539340206 61.1774421,0.208206186 C88.1410182,-0.172 115.1137,0.119958763 142.082243,0.118721649" id="Fill-1" fill="#F2F2F2" mask="url(#mask-2)"></path>
                </g>
                <path d="M49.200731,96.4038379 C37.5616541,96.3400929 28.0663537,105.469066 27.9794326,116.805934 C27.8929293,128.166215 37.2933686,137.590533 48.7824229,137.660766 C60.3955906,137.730606 69.8587134,128.593006 69.9560818,117.21424 C70.0547039,105.770162 60.7767064,96.4674319 49.200731,96.4038379 M19.5000116,116.864674 C19.5142315,100.896364 32.8010493,87.9574903 49.1401369,88.000105 C65.4027506,88.0433414 78.5366206,101.082854 78.4999233,117.148927 C78.4634898,133.132025 65.1440766,146.091848 48.8488674,145.99951 C32.5064367,145.906591 19.4858149,132.980861 19.5000116,116.864674" id="Fill-4" fill="#F2F2F2"></path>
                <path d="M180.046922,116.94139 C180.031061,128.359441 189.382256,137.631653 200.942213,137.660065 C212.49005,137.68916 222.008416,128.398464 222.026413,117.08064 C222.044358,105.693807 212.665163,96.4347392 201.081801,96.4046779 C189.444945,96.3743566 180.062824,105.534429 180.046922,116.94139 M230.497838,117.181688 C230.296814,133.410626 216.977369,146.257731 200.623332,145.996073 C184.16523,145.733183 171.282941,132.65112 171.502772,116.423004 C171.718006,100.511588 185.22134,87.7622451 201.602961,88.0033645 C217.64773,88.2395547 230.693012,101.413218 230.497838,117.181688" id="Fill-6" fill="#F2F2F2"></path>
                <path d="M60.2487662,43.9293197 C60.2487662,39.4065657 60.2804542,34.883394 60.237391,30.3610577 C60.2101719,27.5101648 58.9272147,26.3328037 56.1597973,26.4539228 C44.0119236,26.9864291 33.6072954,34.7948518 29.4577943,46.5296213 C28.4181846,49.4686387 27.4285445,52.4277035 26.4758736,55.3976272 C24.0411801,62.9838589 28.8715666,70.2313749 36.6172478,70.4886485 C40.8768443,70.6298149 45.1498473,70.6435975 49.4041625,70.4351891 C50.576618,70.3779708 51.9838895,69.5790024 52.7951832,68.6635091 C54.9779979,66.200615 56.9909975,63.5593835 58.8735889,60.8442275 C59.6044438,59.7904914 60.1366395,58.3591978 60.1829527,57.0774237 C60.3413926,52.7000126 60.2434849,48.3125779 60.2487662,43.9293197 M68.4896737,43.8658366 C68.4912988,48.5264157 68.4685484,53.1874126 68.4997164,57.8479917 C68.5181117,60.7519264 67.6414107,63.3062863 65.8900402,65.5641133 C63.5699108,68.5549196 61.2696881,71.5615966 58.9316835,74.5373675 C56.6245544,77.473879 53.632071,78.9849441 49.9375769,78.9799323 C45.4037574,78.9736675 40.8691254,79.0384036 36.3365247,78.9636439 C23.663768,78.7560708 14.6733177,66.1847442 18.3174361,53.6940245 C19.4622661,49.7706012 20.7911302,45.890196 22.2707154,42.0870565 C27.8652699,27.7047907 41.5735737,18.1271939 56.5628035,18.0005267 C63.6239429,17.9417564 68.4372667,22.8061498 68.4831736,30.0916721 C68.5120178,34.6825034 68.488455,39.2745876 68.4896737,43.8658366" id="Fill-8" fill="#F2F2F2"></path>
                <path d="M155.506623,74.0114062 C177.665445,74.0125767 199.824679,74.0098456 221.9835,74.0231107 C222.866913,74.0235009 223.791625,74.0480804 224.625064,74.2860719 C226.56948,74.8412555 227.540036,76.1931255 227.5,78.0962776 C227.457022,80.005282 226.399736,81.286925 224.444582,81.780855 C223.664833,81.9778808 222.8157,81.983733 221.997543,81.9841232 C177.6799,81.9942671 133.361431,81.9942671 89.0437882,81.9954375 C88.6307857,81.9954375 88.2165442,82.0102632 87.8051938,81.9864641 C85.168586,81.8346957 83.4554518,80.2085501 83.5,77.9113465 C83.5438343,75.726506 85.2755536,74.1417164 87.7911517,74.0223304 C88.68365,73.9801942 89.5802784,74.0106259 90.4748417,74.0106259 C112.152102,74.0102358 133.829363,74.0102358 155.506623,74.0114062" id="Fill-10" fill="#F2F2F2"></path>
                <path d="M193.944383,41.45911 C193.944383,45.1471499 193.900938,48.8360259 193.958587,52.5232299 C194.002032,55.3159076 195.190929,56.50847 197.906678,56.5176661 C205.278176,56.5435823 212.649674,56.5452543 220.021172,56.510142 C222.759896,56.4971839 223.937932,55.2807954 223.947541,52.5131979 C223.973023,45.2069244 223.973023,37.8998149 223.953389,30.5935414 C223.94587,27.703051 222.781201,26.5017106 219.911305,26.4904245 C212.60957,26.4615823 205.307836,26.4653443 198.006101,26.4992025 C195.13161,26.5125786 193.986576,27.6880029 193.954827,30.6039915 C193.915977,34.222225 193.945637,37.8408765 193.944383,41.45911 M185.513907,41.466216 C185.514324,37.5649945 185.477145,33.663355 185.522679,29.7629695 C185.599962,23.1033466 190.475861,18.1357996 197.147221,18.0630671 C205.012909,17.9769585 212.881104,17.9823925 220.746792,18.0588871 C227.243117,18.1215875 232.213009,22.8245387 232.360054,29.3182144 C232.544697,37.4634198 232.551799,45.6207473 232.350446,53.7655347 C232.191286,60.191076 227.277372,64.8568248 220.875039,64.9308114 C212.940005,65.022354 205.002048,65.022354 197.066597,64.9349914 C190.432834,64.8618409 185.594113,59.8646157 185.521426,53.1690445 C185.479234,49.268659 185.513907,45.3670195 185.513907,41.466216" id="Fill-12" fill="#F2F2F2"></path>
                <path d="M153.872057,56.5332319 C157.564538,56.5332319 161.25702,56.55331 164.949501,56.5265393 C167.836122,56.5056246 169.03236,55.3360782 169.043239,52.4544598 C169.070436,45.1414484 169.070017,37.8280188 169.043657,30.5150074 C169.033616,27.7149561 167.871268,26.4977243 165.125652,26.4835024 C157.741108,26.445856 150.355727,26.4500389 142.971183,26.4814109 C140.211759,26.4931231 138.995437,27.6973878 138.983721,30.4464074 C138.951922,37.8288554 138.955269,45.2121399 138.990416,52.5950061 C139.003387,55.3339868 140.22473,56.50186 143.003819,56.5252844 C146.626426,56.556238 150.249032,56.5328136 153.872057,56.5332319 M177.49264,41.5470592 C177.491804,45.3116936 177.512724,49.0763279 177.487201,52.8405439 C177.437829,60.0627858 172.613544,64.9354775 165.423561,64.9714507 C157.822698,65.009097 150.221417,65.0099336 142.620972,64.9714507 C135.425969,64.9346409 130.58704,60.0949943 130.538923,52.8593671 C130.488295,45.2610801 130.486203,37.6615383 130.537667,30.062833 C130.586203,22.9050083 135.494588,18.0632702 142.701726,18.0281336 C150.232714,17.9917422 157.764539,17.9892324 165.295527,18.0289702 C172.607686,18.0678714 177.452891,22.9501839 177.490548,30.2531562 C177.509795,34.0177905 177.493896,37.7824249 177.49264,41.5470592" id="Fill-14" fill="#F2F2F2"></path>
                <path d="M100.0399,56.531067 C103.731448,56.531067 107.422996,56.5603409 111.114126,56.5214485 C113.751125,56.4934292 115.009807,55.2965461 115.022774,52.6957718 C115.060422,45.2455717 115.060422,37.7945352 115.01148,30.3443351 C114.993911,27.6942134 113.777896,26.4998395 111.135878,26.486039 C103.7532,26.447983 96.3705226,26.4509103 88.9878451,26.4814388 C86.2178247,26.4927302 84.9880059,27.6988136 84.9767116,30.4204472 C84.945757,37.8016446 84.9478485,45.1824238 84.9800581,52.5636212 C84.9917706,55.3003099 86.2169881,56.4955202 88.9656749,56.5206121 C92.6572228,56.5544861 96.3487707,56.528976 100.0399,56.531067 M123.481752,41.5114804 C123.480916,45.4145238 123.530276,49.3179853 123.47004,53.2201923 C123.365463,60.0251126 118.486764,64.8975393 111.650394,64.9535778 C103.912993,65.0171439 96.1743372,65.012962 88.4365182,64.956087 C81.4570874,64.9046486 76.5859174,60.0426769 76.5390671,53.097242 C76.4880338,45.4312517 76.4863606,37.7640068 76.5378122,30.0980164 C76.5859174,22.9041718 81.4495579,18.0744013 88.6644948,18.0338361 C96.263018,17.9911799 103.86196,17.9857433 111.460483,18.0355089 C118.521902,18.0819289 123.393072,22.9610468 123.474223,30.0118676 C123.518563,33.8446537 123.482171,37.6782761 123.481752,41.5114804" id="Fill-16" fill="#F2F2F2"></path>
                <path d="M125.010741,120.994059 C113.342584,120.994059 101.674836,120.994848 90.0070889,120.991692 C89.3251863,120.991692 88.6338583,121.022855 87.9638398,120.928578 C85.9890268,120.651269 84.5514581,119.035538 84.5014628,117.112913 C84.4502381,115.146503 85.7484758,113.496059 87.7478767,113.149718 C88.6781164,112.988776 89.6489261,113.005738 90.6008851,113.005738 C113.527402,112.998243 136.45392,112.998638 159.380437,113.003766 C160.265599,113.003766 161.162235,112.98641 162.033464,113.109088 C164.147198,113.40691 165.540099,115.052225 165.49912,117.092795 C165.459369,119.089974 163.94148,120.721089 161.854793,120.951457 C161.180266,121.026011 160.491807,120.992481 159.809904,120.992481 C148.210183,120.994454 136.610462,120.994059 125.010741,120.994059" id="Fill-18" fill="#F2F2F2"></path>
            </g>
        </g>
    </g>
</svg>