<?xml version="1.0" encoding="UTF-8"?>
<svg width="275px" height="273px" viewBox="0 0 275 273" version="1.1" xmlns="http://www.w3.org/2000/svg" xmlns:xlink="http://www.w3.org/1999/xlink">
    <!-- Generator: Sketch 63 (92445) - https://sketch.com -->
    <title>DRUM</title>
    <desc>Created with Sketch.</desc>
    <defs>
        <polygon id="path-1" points="0.03831164 0.111842665 213.225143 0.111842665 213.225143 64.3614111 0.03831164 64.3614111"></polygon>
        <polygon id="path-3" points="0.000147542618 0.02645 180.256179 0.02645 180.256179 68.9997898 0.000147542618 68.9997898"></polygon>
    </defs>
    <g id="Page-1" stroke="none" stroke-width="1" fill="none" fill-rule="evenodd">
        <g id="Komunitii-Homepage" transform="translate(-1071.000000, -360.000000)">
            <g id="DRUM" transform="translate(1071.000000, 323.000000)">
                <g id="Group-6" opacity="0.169177827" transform="translate(71.000000, 0.000000)">
                    <g id="Group-3" transform="translate(164.971597, 111.540687) rotate(-105.000000) translate(-164.971597, -111.540687) translate(58.323133, 79.116978)">
                        <mask id="mask-2" fill="white">
                            <use xlink:href="#path-1"></use>
                        </mask>
                        <g id="Clip-2"></g>
                        <path d="M2.3808035,44.0832563 C1.64034489,41.4859379 0.899886278,38.8877438 0.000255445423,35.7273519 C7.67393936,35.3630618 14.1718594,35.00928 20.6750559,34.7535764 C42.5414495,33.8918902 64.4052049,32.8638215 86.2803925,32.3226405 C95.3022036,32.0993376 104.367105,33.4426574 113.381002,33.1431689 C119.685453,32.9330015 126.142041,31.7893408 132.155409,29.887326 C138.811622,27.7821495 140.978475,23.1199367 139.917913,16.2325767 C139.39115,12.8059729 138.673555,9.39075307 137.767769,6.04383767 C136.8954,2.81601711 138.226818,0.809794403 141.098953,0.0339265211 C144.237548,-0.813748547 146.663825,1.14168371 146.68669,3.97368905 C146.74473,11.2016953 147.209935,18.7125517 145.454644,25.5920304 C143.606135,32.8375505 136.618387,36.64158 129.657021,37.8833189 C118.801651,39.8203615 107.723793,41.1102637 96.7039744,41.4290176 C71.9153195,42.1444623 47.1020414,41.9947181 22.3037131,42.4273126 C15.9473772,42.5385262 9.6051117,43.5087989 3.25581101,44.0832563 L2.3808035,44.0832563 Z" id="Fill-1" fill="#ACACAC" mask="url(#mask-2)"></path>
                    </g>
                    <path d="M64.4787603,207.338627 C63.5848969,207.249641 62.6910335,207.160654 61.7984507,207.072939 C59.909556,229.750513 58.0206613,252.428086 56.130486,275.10566 C56.6696214,275.151425 57.2087567,275.195918 57.7491727,275.241682 C59.9915148,252.607331 62.2351375,229.972979 64.4787603,207.338627 L64.4787603,207.338627 Z M142.096325,281.011821 C140.705586,276.019679 138.889686,271.884349 138.482453,267.616811 C136.798455,250.01401 135.560109,232.369258 134.107901,214.743575 C133.910688,212.338397 133.433021,209.956102 133.084696,207.562365 C132.558367,207.66025 132.032038,207.759406 131.504428,207.857292 C132.878519,233.128186 134.252609,258.397809 135.66896,284.433988 C138.486295,282.93393 140.303476,281.966519 142.096325,281.011821 L142.096325,281.011821 Z M62.679508,193.510125 C62.8677572,193.492328 63.0585676,193.474531 63.2480973,193.456734 C63.2480973,173.554267 63.3633519,153.65053 63.0303942,133.753149 C63.0047821,132.153934 59.8954693,130.605569 58.2191553,129.033051 C57.7030709,129.397895 57.1857058,129.76274 56.6670601,130.127585 C58.6712094,151.255522 60.6740781,172.382188 62.679508,193.510125 L62.679508,193.510125 Z M129.338922,195.406809 C130.396703,195.57207 131.453204,195.73733 132.509704,195.90132 C136.615329,174.153019 136.626854,151.907666 138.07522,129.409336 C135.744516,130.491158 133.426618,132.031896 133.301119,133.731538 C131.792564,154.277249 130.609284,174.844572 129.338922,195.406809 L129.338922,195.406809 Z M71.9754311,200.203181 C71.9754311,177.684512 72.034339,156.285802 71.7948656,134.888362 C71.7820596,133.831965 69.1427294,132.803536 68.0324435,131.988674 C68.0324435,153.669599 67.9440816,174.259803 68.1963611,194.846194 C68.2181315,196.566176 70.543713,198.259462 71.9754311,200.203181 L71.9754311,200.203181 Z M62.9881342,284.160672 C64.2674602,283.336911 64.5876118,283.239026 64.6029791,283.108089 C67.1437025,260.178811 69.7343696,237.255888 72.0240942,214.303728 C72.1739252,212.801127 70.0199449,211.073518 68.9378324,209.451421 C65.081926,232.867583 62.721768,255.387523 60.6356599,277.931617 C60.4576556,279.854997 62.1057963,281.943637 62.9881342,284.160672 L62.9881342,284.160672 Z M76.9544295,133.68196 C76.9544295,155.873921 76.8891186,177.690868 77.1132247,199.505273 C77.1273114,200.846427 79.4260002,202.163427 80.6617855,203.491868 C81.2483034,203.14355 81.8348212,202.796502 82.421339,202.449455 L82.421339,134.779036 C80.5081128,134.395123 78.3067501,133.952733 76.9544295,133.68196 L76.9544295,133.68196 Z M130.121373,132.483184 C123.906589,131.756038 121.449105,133.54848 121.511855,139.883047 C121.69242,158.200283 121.190422,176.522603 120.986806,194.84238 C120.966316,196.643721 121.148162,198.447605 121.236524,200.248946 C121.840971,200.491752 122.445417,200.734558 123.048583,200.976093 C124.160149,198.956099 125.985013,197.023821 126.250099,194.899586 C127.004376,188.852318 127.127315,182.727504 127.491007,176.631929 C128.366942,161.975853 129.236474,147.319776 130.121373,132.483184 L130.121373,132.483184 Z M98.9821432,205.445757 L106.264953,205.445757 L106.264953,135.755345 L98.9821432,135.755345 L98.9821432,205.445757 Z M110.315511,135.016757 L110.315511,204.047398 C115.82212,204.292747 117.99659,202.398605 117.972258,196.756861 C117.896702,178.243856 118.425593,159.728308 118.712449,141.21276 C118.745744,139.009708 118.716291,136.804114 118.716291,134.275627 C115.487881,134.560383 113.190473,134.763781 110.315511,135.016757 L110.315511,135.016757 Z M75.8979291,291.377477 C76.2193613,290.387185 76.5331099,289.820213 76.5740894,289.232903 C78.2183882,265.520543 79.9318398,241.810726 81.2726349,218.079298 C81.3738028,216.295754 78.7895387,214.362205 77.4538661,212.499844 C76.8084404,212.863418 76.1630146,213.228262 75.5175889,213.593107 C73.0780334,235.932532 70.8011149,258.291026 68.0900708,280.597398 C67.3357935,286.794672 69.2899992,290.186329 75.8979291,291.377477 L75.8979291,291.377477 Z M110.320634,216.369486 L110.320634,293.597055 C113.663017,292.70719 116.336924,291.996569 119.109437,291.259252 C118.421751,265.502746 117.750713,240.389484 117.061747,214.59357 C114.195749,215.348684 112.260753,215.858449 110.320634,216.369486 L110.320634,216.369486 Z M95.6679334,206.040696 L95.6679334,198.73109 C95.6679334,180.010873 95.6743364,161.293199 95.6653722,142.574253 C95.6615304,134.590893 95.483526,134.457413 85.8917828,135.393043 L85.8917828,204.43004 C88.4222614,204.847005 91.4713856,205.349144 95.6679334,206.040696 L95.6679334,206.040696 Z M122.034342,289.262141 C122.508167,289.53927 122.981991,289.815128 123.455815,290.092258 C126.292359,287.202739 132.893886,289.324431 132.449515,281.92584 C131.115123,259.65379 130.103444,237.363943 128.917603,215.084267 C128.826679,213.373183 128.357977,211.683711 127.699746,207.868733 C124.358643,211.576927 120.525788,213.860067 120.539836,216.117781 C120.690986,240.501353 121.445263,264.882383 122.034342,289.262141 L122.034342,289.262141 Z M93.885329,217.179263 C90.3995179,216.57924 87.7934836,216.129222 84.7878999,215.611829 C83.1051829,239.108079 81.4852156,261.945828 79.8229882,284.781035 C79.1212158,294.418273 81.2585482,296.269192 91.6903694,294.432257 C92.4151927,268.918556 93.1425772,243.318411 93.885329,217.179263 L93.885329,217.179263 Z M97.0125703,217.396644 C96.2365227,243.476045 95.4694394,269.224924 94.6805857,295.740358 C99.4265137,295.234406 103.276017,294.822526 106.57614,294.470394 L106.57614,217.396644 L97.0125703,217.396644 Z M101.901926,130.897953 C113.292922,128.285564 126.155334,125.293075 139.042078,122.40737 C143.747027,121.354787 143.178437,119.04368 140.686377,116.292726 C139.711835,115.217261 138.472208,114.276547 137.180076,113.604063 C111.530807,100.244647 85.4013105,97.812773 58.9491011,111.003115 C56.2380569,112.354438 53.5129262,116.150348 53.295223,119.000458 C53.1646012,120.682303 57.7325248,123.894716 60.5665072,124.424821 C73.6107657,126.866865 86.7869268,128.604644 101.901926,130.897953 L101.901926,130.897953 Z M145.085261,134.224777 C137.279963,180.472332 137.719211,225.0355 145.246617,269.575785 C163.985733,224.970667 166.395835,180.361735 145.085261,134.224777 L145.085261,134.224777 Z M167.554783,198.068777 C167.343483,225.066009 161.453974,250.74497 150.769873,275.404401 C149.934918,277.331594 148.467342,279.322349 148.532653,281.241915 C148.870734,291.222386 142.480507,295.529333 134.54843,299.301089 C116.722386,307.773875 98.2534781,310.79306 78.8292375,306.759429 C66.9797849,304.298317 57.259981,298.085788 49.4623676,289.002809 C43.7585459,282.360602 43.9596011,279.153275 49.2549093,271.940283 C50.4151388,270.36268 50.9645191,268.102423 51.143804,266.100226 C53.0019641,245.332049 55.6387331,224.577855 56.1983581,203.768998 C56.6388868,187.441246 54.5335696,171.037221 53.4194419,154.677688 C52.9481787,147.748183 52.3424517,140.809778 51.3589459,133.936207 C50.8403002,130.309371 49.7658713,126.641856 48.2509137,123.301049 C45.7934297,117.875415 47.9448488,110.034433 53.9355263,106.984739 C83.4919261,91.9358504 112.837026,93.2159847 141.424006,109.406443 C144.866277,111.356518 146.566922,116.474513 148.831035,120.26788 C149.890096,122.041254 150.216651,124.230322 151.138688,126.104124 C162.315822,148.850344 167.299943,172.97077 167.554783,198.068777 L167.554783,198.068777 Z" id="Fill-4" fill="#ACACAC" transform="translate(106.394374, 202.484349) rotate(-30.000000) translate(-106.394374, -202.484349) "></path>
                </g>
                <g id="Group-14" transform="translate(0.000000, 37.000000)">
                    <g id="Group-3">
                        <mask id="mask-4" fill="white">
                            <use xlink:href="#path-3"></use>
                        </mask>
                        <g id="Clip-2"></g>
                        <path d="M177.68079,48.77495 C180.936537,44.1232 180.284637,38.32375 180.020272,33.25685 C179.735629,27.820225 179.115272,22.2847 176.490396,17.178125 C171.813687,8.082775 162.383662,3.528775 149.953243,2.51735 C132.899438,1.13045 115.506915,0.82455 98.372749,0.3726 C80.7203672,-0.09315 63.0341888,-0.165025 45.3953257,0.631925 C33.1977282,1.182775 16.1289025,0.60835 7.59411411,8.67445 C-0.839284232,16.645675 -0.765682573,30.438775 0.852051867,40.01425 C2.37590664,49.038875 5.50322614,57.70355 18.6614004,59.402675 C26.8875124,60.4647 35.6859149,59.985725 43.993139,60.0277 C53.6349564,60.076 63.2782759,60.076575 72.9208444,60.027125 C91.1440145,59.9334 109.491857,60.037475 127.650438,58.702325 C126.452533,61.2904 124.866342,63.69965 122.023666,66.06175 C120.719865,67.145625 121.612849,68.9908 123.612861,68.999425 C133.831475,69.046575 142.924284,64.519025 146.825172,57.74725 C158.228172,58.1233 171.666483,57.370625 177.68079,48.77495 Z" id="Fill-1" fill="#000000" mask="url(#mask-4)"></path>
                    </g>
                    <path d="M127.500133,45 C125.501723,45 125.49819,47 127.500133,47 C129.498542,47 129.501369,45 127.500133,45" id="Fill-8" fill="#FFFFFF"></path>
                    <path d="M164.719992,10.1413127 C159.187043,6.18271292 151.08494,3.8940052 143.620057,4.00377672 C142.938667,4.01401448 142.728674,4.8751237 143.452787,4.97579498 C150.62006,5.97113258 157.78516,7.19454468 163.205148,11.3311677 C169.542586,16.1685085 169.895954,22.9823053 171.698996,29.3462095 C171.984296,30.3523537 174.057432,30.1396358 173.998779,29.1016409 C173.631654,22.5233125 171.113188,14.7153156 164.719992,10.1413127" id="Fill-10" fill="#FFFFFF"></path>
                    <path d="M175.926765,34.5970499 C175.797225,34.3412003 175.6685,34.0853506 175.53896,33.829501 C175.257067,33.2714227 174.280221,32.8560493 173.336778,33.047172 C172.475621,33.2219856 171.742375,33.8356169 172.087,34.4247846 C172.234464,34.6775762 172.381928,34.9298582 172.529392,35.1826499 C172.845503,35.7228901 173.739248,36.1459084 174.696542,35.9522374 C175.576437,35.7743658 176.224137,35.1851982 175.926765,34.5970499" id="Fill-12" fill="#FFFFFF"></path>
                </g>
                <g id="lend-your-voice" transform="translate(21.000000, 56.000000)" fill="#FFFFFF" font-family="Chalkboard-Bold, Chalkboard" font-size="19" font-weight="bold" line-spacing="22">
                    <text>
                        <tspan x="0" y="24">lend your voice</tspan>
                    </text>
                </g>
            </g>
        </g>
    </g>
</svg>