<?xml version="1.0" encoding="UTF-8" standalone="no"?>
<svg
   xmlns:dc="http://purl.org/dc/elements/1.1/"
   xmlns:cc="http://creativecommons.org/ns#"
   xmlns:rdf="http://www.w3.org/1999/02/22-rdf-syntax-ns#"
   xmlns:svg="http://www.w3.org/2000/svg"
   xmlns="http://www.w3.org/2000/svg"
   xmlns:xlink="http://www.w3.org/1999/xlink"
   id="svg56"
   version="1.1"
   viewBox="0 0 181 60"
   height="60px"
   width="181px">
  <metadata
     id="metadata60">
    <rdf:RDF>
      <cc:Work
         rdf:about="">
        <dc:format>image/svg+xml</dc:format>
        <dc:type
           rdf:resource="http://purl.org/dc/dcmitype/StillImage" />
      </cc:Work>
    </rdf:RDF>
  </metadata>
  <!-- Generator: Sketch 63 (92445) - https://sketch.com -->
  <title
     id="title2">Group 38</title>
  <desc
     id="desc4">Created with Sketch.</desc>
  <defs
     id="defs8">
    <polygon
       points="0.117282966 0.0947368421 18.1795309 0.0947368421 18.1795309 18.4378105 0.117282966 18.4378105"
       id="path-1" />
    <polygon
       points="0 60 180.818581 60 180.818581 0.0947368421 0 0.0947368421"
       id="path-3" />
  </defs>
  <g
     fill-rule="evenodd"
     fill="none"
     stroke-width="1"
     stroke="none"
     id="Page-1">
    <g
       transform="translate(-106.000000, -119.000000)"
       id="Komunitii-Homepage">
      <g
         transform="translate(106.000000, 119.000000)"
         id="Group-38">
        <polygon
           points="64.2872477 18 58.5119006 10.8380686 57.0165092 12.5712301 57.0165092 18 54 18 54 1 57.0165092 1 57.0165092 9.10510881 63.7457706 1 67.4842492 1 60.4973165 9.02861315 68 18"
           fill="#000000"
           id="Fill-1" />
        <g
           id="Group-37">
          <g
             transform="translate(67.324450, 0.000000)"
             id="Group-4">
            <mask
               fill="white"
               id="mask-2">
              <use
                 id="use11"
                 xlink:href="#path-1" />
            </mask>
            <g
               id="Clip-3" />
            <path
               mask="url(#mask-2)"
               fill="#000000"
               id="Fill-2"
               d="M15.0014394,9.26623158 C15.0014394,5.5976 12.6973073,2.85928421 9.14840695,2.85928421 C5.57308019,2.85928421 3.29537451,5.5976 3.29537451,9.26623158 C3.29537451,12.9083368 5.57308019,15.6731789 9.14840695,15.6731789 C12.6973073,15.6731789 15.0014394,12.9083368 15.0014394,9.26623158 M0.117282966,9.26623158 C0.117282966,3.97591579 3.85158772,0.0946526316 9.14840695,0.0946526316 C14.4454359,0.0946526316 18.1795309,3.97591579 18.1795309,9.26623158 C18.1795309,14.5565474 14.4454359,18.4378105 9.14840695,18.4378105 C3.85158772,18.4378105 0.117282966,14.5565474 0.117282966,9.26623158" />
          </g>
          <polygon
             points="103.751675 18.1189263 103.751675 4.95955789 98.3223041 18.1189263 96.9980468 18.1189263 91.5953122 4.95955789 91.5953122 18.1189263 88.4967096 18.1189263 88.4967096 0.386926316 92.8665068 0.386926316 97.6603852 12.0576632 102.48027 0.386926316 106.850068 0.386926316 106.850068 18.1189263"
             fill="#000000"
             id="Fill-5" />
          <path
             fill="#000000"
             id="Fill-7"
             d="M110.610631,11.1271579 L110.610631,0.386947368 L113.73566,0.386947368 L113.73566,11.0208421 C113.73566,13.8387368 115.298384,15.6730526 118.264435,15.6730526 C121.204479,15.6730526 122.766994,13.8387368 122.766994,11.0208421 L122.766994,0.386947368 L125.892023,0.386947368 L125.892023,11.1006316 C125.892023,15.5136842 123.37585,18.4378947 118.264435,18.4378947 C113.126594,18.4378947 110.610631,15.4869474 110.610631,11.1271579" />
          <polygon
             points="141.967633 18.1189263 132.751105 5.46461053 132.751105 18.1189263 129.652502 18.1189263 129.652502 0.386926316 132.830594 0.386926316 141.861718 12.6957684 141.861718 0.386926316 144.96074 0.386926316 144.96074 18.1189263"
             fill="#000000"
             id="Fill-9" />
          <mask
             fill="white"
             id="mask-4">
            <use
               id="use20"
               xlink:href="#path-3" />
          </mask>
          <g
             id="Clip-12" />
          <polygon
             points="148.720758 18.1189474 151.81957 18.1189474 151.81957 0.386947368 148.720758 0.386947368"
             mask="url(#mask-4)"
             fill="#000000"
             id="Fill-11" />
          <polygon
             points="159.79068 18.1189263 159.79068 3.12524211 154.440798 3.12524211 154.440798 0.386926316 168.239164 0.386926316 168.239164 3.12524211 162.889073 3.12524211 162.889073 18.1189263"
             mask="url(#mask-4)"
             fill="#000000"
             id="Fill-13" />
          <polygon
             points="170.861064 18.1189474 173.959457 18.1189474 173.959457 0.386947368 170.861064 0.386947368"
             mask="url(#mask-4)"
             fill="#000000"
             id="Fill-14" />
          <polygon
             points="177.719768 18.1189474 180.818371 18.1189474 180.818371 0.386947368 177.719768 0.386947368"
             mask="url(#mask-4)"
             fill="#000000"
             id="Fill-15" />
          <path
             mask="url(#mask-4)"
             fill="#000000"
             id="Fill-16"
             d="M51.9608214,42.7074526 L53.7485897,40.2226105 C55.0139118,41.5754526 56.9944251,42.7628211 59.5523348,42.7628211 C62.1928794,42.7628211 63.2381911,41.4651368 63.2381911,40.2501895 C63.2381911,36.3849263 52.5384275,38.7868211 52.5384275,31.9950316 C52.5384275,28.9577684 55.2064472,26.6110316 59.222424,26.6110316 C62.082979,26.6110316 64.3934031,27.5221895 66.0987461,29.1788211 L64.255818,31.5807158 C62.8254356,30.1451368 60.8726071,29.4824 58.9472537,29.4824 C57.0493753,29.4824 55.8392131,30.3935579 55.8392131,31.7739789 C55.8392131,35.1975579 66.5112919,33.0716632 66.5112919,39.9466105 C66.5112919,43.0110316 64.3657183,45.6339789 59.4149593,45.6339789 C56.0317484,45.6339789 53.5835294,44.4468211 51.9608214,42.7074526" />
          <path
             mask="url(#mask-4)"
             fill="#000000"
             id="Fill-17"
             d="M80.6211962,42.2105263 L78.3657222,39.6151579 L80.5937211,37.7652632 L82.849195,40.3606316 C83.674706,39.2286316 84.1145171,37.7376842 84.1145171,36.1088421 C84.1145171,32.2985263 81.7214581,29.4547368 78.0358115,29.4547368 C74.3226898,29.4547368 71.9568961,32.2985263 71.9568961,36.1088421 C71.9568961,39.8911579 74.3226898,42.7627368 78.0358115,42.7627368 C78.9986979,42.7627368 79.8510548,42.5694737 80.6211962,42.2105263 M68.6563202,36.1088421 C68.6563202,30.6143158 72.5345021,26.5833684 78.0358115,26.5833684 C83.5369111,26.5833684 87.4155125,30.6143158 87.4155125,36.1088421 C87.4155125,38.7593684 86.5073665,41.0509474 84.9672935,42.7351579 L86.4803109,44.4469474 L84.2521023,46.3244211 L82.6566597,44.5296842 C81.3363874,45.2475789 79.7688393,45.6341053 78.0358115,45.6341053 C72.5345021,45.6341053 68.6563202,41.6031579 68.6563202,36.1088421" />
          <path
             mask="url(#mask-4)"
             fill="#000000"
             id="Fill-18"
             d="M90.5231126,38.0414316 L90.5231126,26.8871158 L93.7687384,26.8871158 L93.7687384,37.9311158 C93.7687384,40.8576421 95.3916561,42.7626947 98.4722216,42.7626947 C101.525312,42.7626947 103.14823,40.8576421 103.14823,37.9311158 L103.14823,26.8871158 L106.393855,26.8871158 L106.393855,38.0138526 C106.393855,42.5970105 103.780786,45.6340632 98.4722216,45.6340632 C93.1361822,45.6340632 90.5231126,42.5694316 90.5231126,38.0414316" />
          <path
             mask="url(#mask-4)"
             fill="#000000"
             id="Fill-19"
             d="M116.763352,30.1450526 L113.462566,38.9250526 L120.063718,38.9250526 L116.763352,30.1450526 Z M122.319192,45.3027368 L120.971444,41.7686316 L112.555049,41.7686316 L111.207092,45.3027368 L107.548711,45.3027368 L114.755363,26.8871579 L118.770921,26.8871579 L125.977783,45.3027368 L122.319192,45.3027368 Z" />
          <path
             mask="url(#mask-4)"
             fill="#000000"
             id="Fill-20"
             d="M138.739709,32.6575789 C138.739709,30.8904211 137.419437,29.7308421 135.604193,29.7308421 L131.203146,29.7308421 L131.203146,35.5841053 L135.604193,35.5841053 C137.419437,35.5841053 138.739709,34.4245263 138.739709,32.6575789 L138.739709,32.6575789 Z M138.464539,45.3026316 L134.393821,38.4278947 L131.203146,38.4278947 L131.203146,45.3026316 L127.984995,45.3026316 L127.984995,26.8870526 L136.044004,26.8870526 C139.674911,26.8870526 142.040495,29.2615789 142.040495,32.6575789 C142.040495,35.9430526 139.894921,37.7102105 137.694607,38.0691579 L142.17808,45.3026316 L138.464539,45.3026316 Z" />
          <polygon
             points="145.258037 45.3027368 145.258037 26.8871579 157.828204 26.8871579 157.828204 29.7309474 148.476397 29.7309474 148.476397 34.5073684 157.635668 34.5073684 157.635668 37.3511579 148.476397 37.3511579 148.476397 42.4589474 157.828204 42.4589474 157.828204 45.3027368"
             mask="url(#mask-4)"
             fill="#000000"
             id="Fill-21" />
          <path
             mask="url(#mask-4)"
             fill="#EFCA02"
             id="Fill-22"
             d="M38.8604693,0.380863158 L5.90273928,0.380863158 C2.64243221,0.380863158 0,3.03328421 0,6.30612632 L0,37.0825474 L4.76325724,30.6088632 L4.76325724,6.30612632 C4.76325724,5.67475789 5.27395829,5.16212632 5.90273928,5.16212632 L38.8604693,5.16212632 C39.4892503,5.16212632 40.0001611,5.67475789 40.0001611,6.30612632 L40.0001611,39.3882316 C40.0001611,40.0193895 39.4892503,40.5322316 38.8604693,40.5322316 L5.90273928,40.5322316 C5.27395829,40.5322316 4.76325724,40.0193895 4.76325724,39.3882316 L4.76325724,34.8747579 L0.23091657,41.0353895 C0.941913094,43.5073895 3.2116489,45.3134947 5.90273928,45.3134947 L38.8604693,45.3134947 C42.1207764,45.3134947 44.7632086,42.6610737 44.7632086,39.3882316 L44.7632086,6.30612632 C44.7632086,3.03328421 42.1207764,0.380863158 38.8604693,0.380863158" />
          <polygon
             points="19.4801932 10.6473053 10.1934041 23.2218316 7.59732294 26.7372 4.67384786 30.6948842 4.67384786 23.6652 5.00145156 23.2218316 7.59732294 19.7087789 14.2897088 10.6473053"
             mask="url(#mask-4)"
             fill="#EFCA02"
             id="Fill-23" />
          <polygon
             points="20.6306652 37.3554737 15.4397614 37.3554737 9.20438482 28.9112632 9.44117393 28.5891579 11.7987881 25.3975789"
             mask="url(#mask-4)"
             fill="#EFCA02"
             id="Fill-24" />
          <polygon
             points="137.436467 59.8953684 138.545747 59.8953684 138.545747 58.7818947 137.436467 58.7818947"
             mask="url(#mask-4)"
             fill="#000000"
             id="Fill-25" />
          <polygon
             points="141.438392 59.8953684 142.547462 59.8953684 142.547462 58.7818947 141.438392 58.7818947"
             mask="url(#mask-4)"
             fill="#000000"
             id="Fill-26" />
          <polygon
             points="145.440526 59.8953684 146.549597 59.8953684 146.549597 58.7818947 145.440526 58.7818947"
             mask="url(#mask-4)"
             fill="#000000"
             id="Fill-27" />
          <g
             fill="#000000"
             mask="url(#mask-4)"
             id="Group">
            <g
               id="g49"
               transform="translate(53.168026, 53.990884)">
              <polygon
                 points="2.21738337e-14 5.90456842 2.21738337e-14 0.0959368421 0.277477404 0.0959368421 0.277477404 5.64330526 3.18417381 5.64330526 3.18417381 5.90456842"
                 id="Fill-28" />
              <polygon
                 points="8.65907775 5.90456842 8.65907775 0.0959368421 12.1987498 0.0959368421 12.1987498 0.356989474 8.93655516 0.356989474 8.93655516 2.78688421 12.1381368 2.78688421 12.1381368 3.04814737 8.93655516 3.04814737 8.93655516 5.64330526 12.1987498 5.64330526 12.1987498 5.90456842"
                 id="Fill-29" />
              <polygon
                 points="19.3571216 5.90456842 19.3571216 0.356989474 17.4049222 0.356989474 17.4049222 0.0959368421 21.5953973 0.0959368421 21.5953973 0.356989474 19.634599 0.356989474 19.634599 5.90456842"
                 id="Fill-30" />
              <path
                 id="Fill-31"
                 d="M26.9577163,1.52402105 L26.7668589,1.36738947 C27.0443363,1.15833684 27.2265947,0.827389474 27.2265947,0.566126316 C27.2265947,0.566126316 27.1745808,0.574757895 27.1571729,0.574757895 C26.9923224,0.574757895 26.8796955,0.444231579 26.8796955,0.287389474 C26.8796955,0.139389474 26.9923224,0.00865263158 27.1571729,0.00865263158 C27.3394313,0.00865263158 27.495473,0.174126316 27.495473,0.470336842 C27.495473,0.905705263 27.2351937,1.32381053 26.9577163,1.52402105" />
              <path
                 id="Fill-32"
                 d="M32.8663072,5.08589474 L33.0917707,4.88568421 C33.4474787,5.32105263 34.0548669,5.74778947 34.8879283,5.74778947 C36.2239306,5.74778947 36.5622307,4.98147368 36.5622307,4.43284211 C36.5622307,2.51684211 33.0485656,3.46610526 33.0485656,1.48063158 C33.0485656,0.54 33.9074242,1.66100899e-14 34.8619213,1.66100899e-14 C35.7119711,1.66100899e-14 36.3279584,0.313684211 36.7356803,0.818526316 L36.5188159,1.01894737 C36.111094,0.487789474 35.5297127,0.261263158 34.8619213,0.261263158 C34.0202608,0.261263158 33.3520499,0.766315789 33.3520499,1.48063158 C33.3520499,3.13515789 36.8659248,2.26442105 36.8659248,4.43284211 C36.8659248,5.08589474 36.4493941,6.00905263 34.8879283,6.00905263 C33.9854451,6.00905263 33.2826282,5.61705263 32.8663072,5.08589474" />
              <polygon
                 points="50.5924572 5.90456842 50.5924572 0.356989474 48.6402579 0.356989474 48.6402579 0.0959368421 52.830733 0.0959368421 52.830733 0.356989474 50.8699346 0.356989474 50.8699346 5.90456842"
                 id="Fill-33" />
              <path
                 id="Fill-34"
                 d="M59.650532,0.418042105 L58.1410801,4.08456842 L61.1601936,4.08456842 L59.650532,0.418042105 Z M61.9064254,5.90456842 L61.2642214,4.34562105 L58.0368425,4.34562105 L57.3948483,5.90456842 L57.0739561,5.90456842 L59.4856815,0.0959368421 L59.8153825,0.0959368421 L62.2273176,5.90456842 L61.9064254,5.90456842 Z" />
              <polygon
                 points="67.5116577 5.90456842 67.5116577 0.0959368421 67.7891351 0.0959368421 67.7891351 5.64330526 70.6958315 5.64330526 70.6958315 5.90456842"
                 id="Fill-35" />
              <polygon
                 points="79.7278154 5.90456842 77.1510298 3.04814737 76.4568119 3.80583158 76.4568119 5.90456842 76.1793345 5.90456842 76.1793345 0.0959368421 76.4568119 0.0959368421 76.4568119 3.44856842 79.4675362 0.0959368421 79.8404423 0.0959368421 77.3244794 2.87383158 80.1007216 5.90456842"
                 id="Fill-36" />
            </g>
          </g>
        </g>
      </g>
    </g>
  </g>
</svg>
