<?xml version="1.0" encoding="UTF-8"?>
<svg width="186px" height="300px" viewBox="0 0 186 300" version="1.1" xmlns="http://www.w3.org/2000/svg" xmlns:xlink="http://www.w3.org/1999/xlink">
    <!-- Generator: Sketch 63 (92445) - https://sketch.com -->
    <title>news paper 1</title>
    <desc>Created with Sketch.</desc>
    <defs>
        <polygon id="path-1" points="0 0.517 195.89987 0.517 195.89987 300 0 300"></polygon>
    </defs>
    <g id="Page-1" stroke="none" stroke-width="1" fill="none" fill-rule="evenodd" opacity="0.196800595">
        <g id="Komunitii-Homepage" transform="translate(0.000000, -3031.000000)">
            <g id="news-paper-1" transform="translate(-10.000000, 3030.373023)">
                <path d="M20.8445,247.572 C19.6785,245.039 18.9285,242.607 19.0665,240.754 C19.2205,241.711 19.4545,242.642 19.6745,243.517 L19.7065,243.636 C20.0435,244.994 20.4235,246.308 20.8445,247.572 M24.9785,262.873 C29.4185,267.939 36.9535,272.318 44.6395,274.301 C47.5465,275.049 51.8905,275.801 56.0345,273.666 C58.9665,272.154 60.7535,269.043 62.4805,266.031 C62.6165,265.795 62.7515,265.56 62.8855,265.328 C63.9315,266.441 64.8585,267.451 65.6995,268.392 C66.3995,269.177 67.1045,270.062 67.7555,270.97 C62.5335,278.797 57.0325,281.426 49.4375,279.748 L48.9555,279.642 C41.0565,277.904 30.2435,275.523 25.2975,268.988 C22.8915,265.806 19.5955,259.051 18.0905,252.486 C20.4475,256.984 23.3195,260.986 24.9785,262.873 M37.1825,259.965 C37.4465,260.929 38.1625,261.535 39.1015,261.586 C40.1955,261.644 41.2815,260.935 41.6855,259.898 C41.8825,259.398 41.9075,258.851 41.7605,258.312 C40.7905,254.754 39.6135,251.203 38.4755,247.769 C37.9025,246.043 37.3145,244.271 36.7555,242.502 C37.0385,242.703 37.3325,242.916 37.6395,243.138 C38.9635,246.238 39.8155,249.582 40.6355,252.818 C41.6065,256.636 42.6095,260.584 44.4045,264.24 C44.8515,265.154 45.7245,265.676 46.7395,265.634 C47.7545,265.593 48.6615,264.986 48.9975,264.129 C49.1555,263.732 49.2595,263.097 48.8825,262.328 C47.1585,258.808 46.1745,254.937 45.2255,251.193 C44.9865,250.25 44.7405,249.289 44.4835,248.328 C45.0075,248.744 45.5485,249.181 46.1155,249.642 C46.1095,249.978 46.1805,250.322 46.3245,250.654 C47.9365,254.406 49.0065,258.445 50.0425,262.349 C50.3745,263.603 50.7045,264.855 51.0555,266.101 C51.3265,267.062 52.0515,267.666 52.9905,267.715 C54.0795,267.769 55.1605,267.062 55.5635,266.035 C55.7605,265.533 55.7825,264.98 55.6295,264.439 C55.2885,263.217 54.9605,261.988 54.6345,260.76 C54.2025,259.136 53.7615,257.474 53.2805,255.826 C53.5995,256.121 53.9375,256.431 54.2965,256.767 C54.4295,257.404 54.5515,258.045 54.6745,258.681 C54.9905,260.33 55.3165,262.035 55.7965,263.695 C56.0025,264.408 56.5395,264.886 57.1675,265.119 C56.5575,266.072 55.9075,267.043 55.1985,267.972 C52.7225,271.211 48.1315,270.291 44.8945,269.318 C38.6625,267.449 32.8255,264.109 29.2795,260.381 C28.1595,259.205 26.2045,256.697 24.3035,253.75 C24.5385,253.814 24.7905,253.843 25.0535,253.834 C26.0785,253.804 26.9995,253.193 27.3435,252.314 C27.5635,251.75 27.5315,251.131 27.2505,250.527 C26.4125,248.734 25.6565,246.705 24.8755,244.14 C24.8065,243.916 24.7265,243.666 24.6425,243.402 C24.1135,241.756 23.3125,239.265 23.8405,237.894 C23.9105,237.707 23.9615,237.517 23.9865,237.33 C24.3495,237.297 24.6775,237.189 24.9545,237.015 C26.2405,238.478 26.8965,242.01 27.3405,244.404 C27.4875,245.197 27.6155,245.883 27.7475,246.433 C28.0495,247.679 28.3265,248.935 28.6065,250.191 C29.1475,252.631 29.7045,255.156 30.4375,257.599 C30.7255,258.562 31.4645,259.158 32.4135,259.197 C33.4905,259.242 34.5585,258.543 34.9525,257.537 C35.1525,257.027 35.1705,256.465 35.0055,255.914 C34.2405,253.357 33.6505,250.685 33.0775,248.101 C32.8035,246.851 32.5185,245.572 32.2145,244.299 C32.7725,246.058 33.3515,247.801 33.9205,249.517 C35.0535,252.924 36.2255,256.449 37.1825,259.965 M45.3265,283.722 C46.4625,284.002 47.5735,284.275 48.6455,284.552 C57.0495,286.73 64.3735,283.724 70.4325,275.617 C71.3395,277.734 72.0085,280.381 71.1385,282.603 C70.5465,284.113 69.2865,285.312 67.3925,286.168 C62.6505,288.314 55.6415,286.867 50.0095,285.703 C48.7365,285.441 47.5315,285.193 46.4065,284.994 C41.3315,284.101 36.5325,282.291 32.2045,279.775 C36.4005,281.527 41.0015,282.66 45.3265,283.722 M9.6095,233.66 C9.3735,233.9 9.1985,234.168 9.0865,234.453 C8.7115,235.412 9.1125,236.478 10.0805,237.103 C10.9815,237.685 12.3395,237.808 13.3485,236.773 C14.1245,235.978 15.0055,235.398 16.0095,235.025 C15.5425,235.535 15.1665,236.123 14.8825,236.787 C14.4215,237.484 14.0255,238.256 13.7015,239.08 C10.5095,247.236 14.7815,260.039 18.8255,267.699 C15.1545,262.603 12.7065,256.75 11.9245,250.582 C11.7845,249.468 10.9785,248.66 9.8735,248.521 C8.7105,248.377 7.6205,248.98 7.2275,249.99 C7.0815,250.359 7.0355,250.763 7.0895,251.189 C9.3825,269.299 23.6175,284.263 43.3585,289.312 C46.4335,290.097 49.6635,290.539 52.7885,290.968 C53.7105,291.093 54.6305,291.22 55.5425,291.353 C59.2625,291.902 63.5845,292.32 67.4485,291.248 C71.2655,290.187 74.1135,287.703 75.4625,284.256 C76.6185,281.301 76.6035,277.808 75.4195,274.426 C73.5255,269.013 69.2505,264.531 65.0045,260.406 C64.7445,259.619 64.0725,258.97 63.2665,258.73 L63.2055,258.672 C62.4845,257.976 61.7755,257.293 61.0965,256.621 C57.0435,252.607 52.5575,248.605 47.7645,244.726 L47.3495,244.39 C45.5315,242.92 43.4745,241.254 41.2005,239.556 C41.0235,239.373 40.8235,239.22 40.6025,239.107 C33.3275,233.75 22.6155,227.099 13.3705,230.91 C11.7735,231.566 10.5235,232.724 9.6095,233.66" id="Fill-1" fill="#9F9F9F"></path>
                <g id="Group-5" transform="translate(0.000000, 0.483000)">
                    <mask id="mask-2" fill="white">
                        <use xlink:href="#path-1"></use>
                    </mask>
                    <g id="Clip-4"></g>
                    <path d="M45.53,236.0812 C57.338,244.3332 67.8,255.9832 74.987,268.8882 C76.386,271.3972 80.724,280.1692 77.808,287.6202 C77.028,289.6142 75.773,291.3292 74.074,292.7202 C67.955,297.7332 56.269,294.4462 49.994,292.6792 C39.131,289.6282 30.024,285.1942 22.927,279.5052 C15.62,273.6422 10.342,265.1862 6.782,253.6592 C4.454,246.1062 4.086,240.4852 5.65,236.4792 C6.179,235.1282 6.945,233.9662 7.919,233.0302 C8.196,232.7652 8.404,232.4582 8.535,232.1182 C8.667,231.7802 8.724,231.4132 8.702,231.0422 C19.054,221.1882 34.418,228.3172 45.53,236.0812 M83.367,278.1942 C83.466,278.3702 83.587,278.5302 83.731,278.6712 C83.656,278.8822 83.58,279.0952 83.498,279.3042 C83.464,278.9362 83.42,278.5652 83.367,278.1942 M100.826,171.5692 C100.168,171.1752 99.414,171.0952 98.701,171.3392 C97.949,171.5972 97.329,172.1852 97.046,172.9072 C96.65,173.9192 97.018,174.9422 97.983,175.5172 C102.157,178.0052 105.937,181.9382 109.22,187.2122 C108.537,188.7842 107.92,190.2472 107.345,191.6532 C103.499,188.6042 99.148,185.3762 93.854,184.8582 C92.725,184.7492 91.768,185.3372 91.355,186.3932 C91.057,187.1552 91.118,187.9972 91.515,188.6472 C91.884,189.2492 92.504,189.6202 93.265,189.6962 C97.724,190.1322 101.418,193.1122 104.99,195.9932 L105.48,196.3882 C104.625,198.6302 103.795,200.9012 103.008,203.1592 C99.905,200.5382 95.83,197.6202 90.861,196.4502 C89.724,196.1832 88.72,196.7002 88.303,197.7652 C88.023,198.4812 88.07,199.3152 88.426,199.9952 C88.763,200.6382 89.349,201.0852 90.078,201.2552 C94.439,202.2822 98.163,205.3062 101.329,208.1452 C100.849,209.6082 100.417,210.9582 100.017,212.2332 C97.379,209.6262 94.064,207.9602 90.359,207.3842 C89.231,207.2082 88.238,207.7762 87.826,208.8272 C87.537,209.5672 87.591,210.4052 87.971,211.0692 C88.327,211.6882 88.935,212.0932 89.685,212.2122 C93.269,212.7672 96.331,214.7352 98.343,217.7692 C97.75,219.7882 97.165,221.8352 96.597,223.8682 C93.464,220.6262 90.122,217.5952 86.648,214.8372 C86.036,214.3522 85.31,214.1902 84.603,214.3822 C83.849,214.5852 83.195,215.1862 82.896,215.9502 C82.503,216.9542 82.791,217.9992 83.645,218.6772 C87.808,221.9792 91.66,225.5772 95.101,229.3762 C94.805,230.4912 94.511,231.6062 94.221,232.7222 C91.377,228.6402 87.644,224.4662 83.01,224.3112 C81.909,224.2742 80.97,224.9012 80.562,225.9442 C80.259,226.7222 80.325,227.5932 80.738,228.2182 C81.119,228.7962 81.751,229.1282 82.515,229.1532 C86.384,229.2822 89.85,234.7702 91.922,238.0502 L92.391,238.7902 C92.456,238.8902 92.525,238.9852 92.6,239.0712 C92.479,239.5582 92.357,240.0422 92.236,240.5262 C89.365,235.8452 85.231,231.9562 80.44,229.4582 C79.677,229.0612 79.038,229.1572 78.638,229.3082 C78.044,229.5302 77.554,230.0342 77.298,230.6902 C76.876,231.7692 77.139,233.2202 78.46,233.9092 C83.886,236.7372 88.335,241.9912 90.393,247.9932 L89.183,252.9422 C87.97,257.9212 87.003,262.5202 86.244,266.9192 C84.458,260.9742 81.252,254.9502 76.683,248.9722 C74.022,245.4912 70.797,242.0402 66.529,238.1122 C64.797,236.5182 62.828,234.8722 60.335,232.9332 C59.553,232.3252 58.748,231.7352 57.924,231.1382 C57.972,230.6042 58.291,229.3082 58.873,227.2762 C58.969,226.9352 59.042,226.6832 59.067,226.5732 C60.463,220.6852 62.4,214.5612 64.82,208.3762 C67.492,201.5482 70.753,194.5812 74.792,187.0792 C80.947,175.6422 88.556,162.6282 98.406,152.5482 C106.619,157.8292 112.785,164.4482 115.801,171.2332 C115.976,171.6282 116.233,171.9562 116.552,172.2002 C115.282,174.5302 114.189,176.6162 113.223,178.5632 C112.705,179.6102 112.175,180.7142 111.586,181.9722 C108.373,177.4052 104.758,173.9092 100.826,171.5692 M95.443,145.2182 C88.645,141.5202 75.756,136.2742 64.213,141.5382 C64.238,141.4502 64.268,141.3562 64.305,141.2572 C64.626,140.3722 65.038,139.4972 65.44,138.6452 L66.373,136.6472 C66.976,135.3492 67.581,134.0462 68.21,132.7612 C69.435,130.2532 70.892,127.8022 72.301,125.4332 C73.8,122.9132 75.347,120.3102 76.643,117.5992 C78.468,113.7882 80.451,109.7432 82.906,105.8722 C84.231,103.7802 86.438,100.2942 89.013,99.1672 C89.287,99.1242 89.55,99.0362 89.796,98.9052 C90.354,98.7702 90.884,98.7612 91.413,98.8702 C92.199,99.0362 92.913,98.8432 93.427,98.3350363 C104.415,98.3022 115.697,103.2652 123.258,107.0192 C127.367,109.0602 131.566,111.9362 136.473,116.0732 C140.349,119.3412 144.492,123.3212 145.996,128.1452 C135.544,142.2682 126.884,154.2182 119.293,167.3212 C113.773,156.7982 103.358,149.5222 95.443,145.2182 M50.439,211.3272 C50.192,210.7762 49.732,210.3662 49.113,210.1382 C41.706,207.4232 34.426,204.9362 26.884,204.2702 L30.869,198.4012 C31.092,198.4292 31.322,198.4232 31.559,198.3882 C35.507,197.7722 39.373,199.3332 43.113,200.8412 C44.453,201.3822 45.84,201.9422 47.205,202.3902 C48.684,202.8722 49.904,201.9852 50.344,200.8542 C50.592,200.2272 50.583,199.5482 50.322,198.9932 C50.066,198.4502 49.596,198.0542 48.964,197.8472 C47.572,197.3902 46.15,196.8332 44.773,196.2942 C41.396,194.9762 37.918,193.6162 34.245,193.4112 L34.973,192.3292 C37.342,192.2532 39.615,192.9032 42.015,193.5912 C44.58,194.3252 47.233,195.0832 50.015,194.8702 C50.939,194.7982 51.654,194.2922 51.972,193.4762 C52.287,192.6732 52.148,191.6942 51.623,190.9812 C51.126,190.3102 50.343,189.9602 49.481,190.0262 C47.758,190.1592 45.915,189.6202 44.134,189.1012 C43.654,188.9602 43.179,188.8232 42.715,188.6982 C41.257,188.3102 39.702,187.9292 38.088,187.7002 L38.862,186.5382 C39.011,186.5502 39.163,186.5462 39.315,186.5302 C43.968,186.0542 48.66,186.9522 51.866,188.9332 C52.517,189.3372 53.269,189.4292 53.981,189.1922 C54.724,188.9442 55.361,188.3412 55.644,187.6242 C56.039,186.6142 55.677,185.5832 54.727,184.9972 C51.237,182.8392 46.823,181.6342 42.174,181.5482 C42.396,181.2102 42.619,180.8702 42.842,180.5302 C43.091,180.5772 43.354,180.5832 43.626,180.5482 C47.831,180.0032 51.4,182.1142 54.696,184.3272 C55.338,184.7592 56.083,184.8722 56.792,184.6512 C57.54,184.4192 58.182,183.8152 58.469,183.0852 C58.868,182.0652 58.537,181.0462 57.603,180.4212 C54.151,178.1042 50.374,175.9542 46.034,175.6362 C46.34,175.1612 46.646,174.6862 46.951,174.2102 C47.106,174.2292 47.263,174.2352 47.424,174.2242 C51.635,173.9702 55.513,175.0562 58.64,177.3622 C59.266,177.8232 60.002,177.9662 60.709,177.7612 C61.461,177.5442 62.109,176.9422 62.403,176.1922 C62.799,175.1832 62.492,174.1472 61.602,173.4912 C58.252,171.0202 54.363,169.6432 50.025,169.3822 C55.067,161.3862 59.382,154.1042 63.184,147.1692 C63.655,147.1812 64.125,147.0542 64.551,146.7962 C71.75,142.4252 81.475,143.3882 93.448,149.6572 C93.671,149.7742 93.891,149.8922 94.113,150.0132 C83.853,160.7122 76.1,174.4012 69.621,186.4402 C66.202,192.7902 63.184,199.2942 60.653,205.7672 C60.651,205.7672 60.652,205.7692 60.652,205.7692 C57.272,214.4032 54.672,223.1982 52.923,231.9112 C52.755,232.7452 53.149,233.7162 53.86,234.2222 C66.551,243.2202 81.811,257.7782 83.037,276.3112 C82.643,274.4582 82.052,272.5712 81.265,270.6632 C78.271,263.4032 73.243,257.0202 68.379,250.8452 L68.054,250.4332 C64.478,245.8922 59.956,241.3702 54.232,236.6082 C47.257,230.8042 29.906,218.2042 14.876,222.1632 C17.977,217.4542 21.05,212.8922 23.717,208.9482 C31.929,209.0302 39.744,211.8942 47.304,214.6632 C48.766,215.2002 50.017,214.3082 50.453,213.1962 C50.697,212.5712 50.693,211.8902 50.439,211.3272 M171.172,72.1872 C170.644,72.0322 170.095,72.0612 169.602,72.2722 C168.873,72.5822 168.311,73.2892 168.138,74.0912 C167.901,74.0082 167.652,73.9712 167.401,73.9752 C167.595,73.4822 167.79,72.9872 167.985,72.4902 L168.629,70.8442 C169.316,69.1002 170.102,67.6142 171.032,66.2992 C171.322,65.8902 171.608,65.6622 171.886,65.6202 C172.426,65.5382 173.167,66.1042 173.819,66.6022 C173.904,66.6672 173.989,66.7332 174.076,66.7972 C174,66.9652 173.949,67.1472 173.917,67.3312 C172.679,67.0152 171.403,67.6232 170.951,68.7782 C170.809,69.1412 170.759,69.5342 170.802,69.9442 C170.881,70.6962 171.005,71.4402 171.172,72.1872 M167.08,97.9172 C167.011,97.8312 166.942,97.7472 166.873,97.6632 C167.546,97.4232 168.1,96.8782 168.375,96.1772 C168.441,96.0092 168.487,95.8412 168.515,95.6712 C168.638,95.7062 168.765,95.7292 168.893,95.7452 C168.37,96.5632 167.836,97.3922 167.292,98.2242 C167.23,98.1202 167.16,98.0152 167.08,97.9172 M159.477,109.2592 C159.425,109.1652 159.372,109.0732 159.319,108.9812 C159.816,108.7412 160.232,108.3522 160.481,107.8802 C160.621,107.8332 160.757,107.7722 160.887,107.7022 C160.466,108.3062 160.04,108.9132 159.611,109.5182 C159.57,109.4312 159.527,109.3432 159.477,109.2592 M157.119,113.0072 C156.929,113.2722 156.737,113.5362 156.544,113.7982 C156.276,113.4172 155.998,113.0382 155.717,112.6592 C155.809,112.6222 155.899,112.5792 155.988,112.5302 C156.335,112.7862 156.72,112.9482 157.119,113.0072 M164.916,101.8132 C164.873,101.8782 164.831,101.9422 164.786,102.0052 C164.738,101.9502 164.686,101.8972 164.633,101.8452 C164.649,101.8252 164.666,101.8042 164.683,101.7842 C164.759,101.7982 164.838,101.8082 164.916,101.8132 M165.851,44.0202 C164.717,43.7902 163.716,44.3272 163.3,45.3862 C163.016,46.1122 163.065,46.9472 163.431,47.6202 C163.777,48.2542 164.373,48.6842 165.109,48.8342 C173.486,50.5432 182.137,56.3622 186.764,63.3702 C185.98,65.2272 185.076,67.1762 184.017,69.2902 C182.772,67.7332 181.363,66.2762 179.82,64.9482 L179.649,64.8012 C177.83,63.2352 174.043,59.9692 171.328,60.6382 C167.101,61.6792 164.927,66.1062 163.66,69.3442 C162.998,71.0392 162.456,72.7602 161.931,74.4262 C161.432,76.0122 160.973,77.4962 160.471,78.6812 C158.945,82.3362 156.759,85.8472 154.643,89.2432 C154.116,90.0912 153.592,90.9352 153.077,91.7782 C152.243,93.1452 151.269,94.4662 150.328,95.7432 C149.051,97.4762 147.73,99.2672 146.696,101.2472 C144.392,105.6732 147.844,110.2552 150.872,114.2552 C151.876,115.5812 152.831,116.8432 153.49,117.9892 C152.134,119.8392 150.775,121.6852 149.413,123.5282 C146.158,116.7492 138.716,110.0752 127.261,103.6672 C135.74,89.4422 142.381,76.0882 147.566,62.8362 C154.955,43.9562 159.192,25.3762 160.167,7.5872 C168.467,13.7292 177.04,20.4532 183.898,28.8312 C190.687,37.1252 192.381,45.5142 189.389,56.0282 C189.215,56.6402 189.022,57.2652 188.809,57.9162 C183.259,51.0772 174.589,45.8032 165.851,44.0202 M109.135,86.7102 C109.884,86.4852 110.531,85.8862 110.823,85.1442 C111.219,84.1292 110.904,83.0992 110,82.4522 C107.084,80.3682 102.912,79.3832 98.65,79.7372 C99.001,78.7622 99.368,77.7032 99.779,76.4952 C104.055,76.1662 107.327,76.7872 110.042,78.4382 C110.698,78.8342 111.452,78.9202 112.165,78.6802 C112.918,78.4252 113.537,77.8402 113.821,77.1122 C114.217,76.1042 113.853,75.0772 112.894,74.4952 C109.583,72.4812 105.813,71.5182 101.398,71.5592 C101.728,70.5132 102.051,69.4672 102.37,68.4162 C105.904,67.3132 109.436,67.9782 113.17,68.6822 C115.757,69.1692 118.433,69.6742 121.132,69.5442 C122.07,69.5002 122.793,69.0042 123.113,68.1842 C123.421,67.3992 123.287,66.4302 122.774,65.7152 C122.281,65.0302 121.504,64.6612 120.64,64.7022 C117.962,64.8292 115.328,64.3612 112.782,63.9112 C109.916,63.4012 106.963,62.8772 103.91,63.1902 C104.616,60.7212 105.339,58.1152 106.108,55.2602 C106.238,54.7802 106.372,54.2972 106.509,53.8132 C113.189,52.7672 120.166,53.8272 128.413,57.1322 C129.033,57.3812 129.664,57.3802 130.235,57.1332 C130.829,56.8772 131.312,56.3612 131.564,55.7192 C131.996,54.6122 131.687,53.1942 130.26,52.6212 C121.968,49.2992 114.858,48.0452 108.002,48.7112 C110.654,39.7972 113.35,30.5892 111.655,21.2712 C117.376,17.2962 124.924,16.1252 132.249,15.4572 C138.282,14.9112 147.133,14.5372 154.31,17.5972 C154.329,17.6062 154.349,17.6142 154.368,17.6222 C152.597,31.7672 148.758,46.4582 142.95,61.2992 C137.906,74.1922 131.479,87.1262 123.301,100.8412 C123.185,101.0342 123.101,101.2272 123.041,101.4272 C116.394,98.1142 104.652,93.2782 93.017,93.4382 C94.291,90.7412 95.496,87.9522 96.681,84.9562 C99.868,84.2512 104.155,84.2602 107.056,86.3352 C107.688,86.7862 108.426,86.9192 109.135,86.7102 M61.816,299.8742 C70.431,300.5992 76.837,298.1852 80.34,292.8902 C81.011,291.8722 81.595,290.7702 82.078,289.6122 C82.474,289.4912 82.836,289.2722 83.137,288.9682 C85.289,286.7902 86.972,284.1012 88.285,280.7472 C90.168,275.9362 90.976,270.5402 91.759,265.3232 C92.21,262.3252 92.634,259.4952 93.245,256.8492 C93.818,254.3582 94.394,251.8702 94.977,249.3782 C95.298,248.8952 95.434,248.3132 95.365,247.7292 C96.963,240.9332 98.337,235.3882 99.682,230.3112 C100.258,229.7162 100.473,228.9052 100.253,228.1712 C100.947,225.6102 101.7,222.9682 102.548,220.1122 C103.093,219.8492 103.506,219.4212 103.71,218.8992 C103.866,218.5012 103.969,217.8622 103.571,217.0932 C103.546,217.0422 103.519,216.9932 103.492,216.9422 C105.541,210.3082 107.801,203.8252 110.208,197.6732 C112.527,191.7452 115.045,185.9722 117.689,180.5112 C123.939,167.6102 132.07,155.6302 139.199,145.6122 C143.03,140.2272 147.009,134.8232 150.857,129.5952 C161.982,114.4722 173.488,98.8352 182.744,81.9612 L183.815,80.0122 C184.316,79.1032 184.826,78.1772 185.339,77.2392 C186.208,77.0942 186.96,76.5412 187.252,75.7952 C187.409,75.3932 187.509,74.7522 187.102,73.9812 C187.1,73.9772 187.097,73.9722 187.096,73.9692 C189.372,69.6472 191.044,66.0792 192.342,62.7582 C196.748,51.5032 197.058,42.1532 193.293,34.1772 C187.13,21.1242 173.974,11.5672 162.368,3.1352 C161.365,2.4072 160.376,1.6892 159.405,0.9782 C158.798,0.5322 157.936,0.3992 157.157,0.6242 C156.445,0.8312 155.896,1.3112 155.649,1.9392 L155.65,1.9392 C155.559,2.1702 155.511,2.4182 155.504,2.6732 C155.424,5.8892 155.226,9.2242 154.914,12.6002 C147.55,9.8662 139.079,10.0542 131.705,10.6172 C120.775,11.4512 112.857,13.9602 107.496,18.2862 C106.786,18.8602 106.391,19.8162 106.574,20.6002 C108.7,29.7902 105.881,39.1152 103.154,48.1342 C102.502,50.2912 101.828,52.5222 101.243,54.6882 C98.989,63.0482 96.185,72.8742 92.47,82.3722 C90.847,86.5172 89.174,90.3082 87.359,93.9502 C87.24,93.9662 87.122,93.9832 87.005,94.0052 C85.972,94.1922 85.208,94.9742 85.025,95.9812 C83.2,97.3722 81.693,99.2162 80.574,100.6852 C77.189,105.1302 74.735,110.2802 72.361,115.2632 L71.549,116.9642 C69.977,120.2392 68.149,123.4642 66.381,126.5832 C64.593,129.7352 62.746,132.9952 61.143,136.3372 C60.79,137.0732 60.379,137.9422 59.991,138.9362 C59.038,141.3722 58.749,143.2002 59.11,144.5072 C48.831,163.3432 36.569,181.3842 24.709,198.8332 C18.666,207.7222 12.418,216.9152 6.506,226.1042 C6.367,226.3192 6.261,226.5462 6.192,226.7822 C5.335,227.5172 4.563,228.2692 3.836,229.0772 C3.316,229.6512 3.124,230.3682 3.281,231.0502 C2.467,232.1342 1.801,233.3372 1.292,234.6362 C-0.322,238.7592 -0.42,243.8212 0.976,250.5712 C2.686,258.8312 6.105,266.8152 10.864,273.6632 C22.8,290.8512 45.772,298.5242 61.816,299.8742" id="Fill-3" fill="#9F9F9F" mask="url(#mask-2)"></path>
                </g>
                <path d="M102.9265,137.3923 C101.7705,137.2533 100.6905,137.8533 100.2985,138.8533 C100.1535,139.2263 100.1085,139.6323 100.1665,140.0643 C100.4765,142.3803 101.1485,144.6173 101.7955,146.7833 L101.9355,147.2493 C102.1075,147.8223 102.5205,148.2923 103.0995,148.5723 C103.7395,148.8823 104.4955,148.9193 105.1225,148.6693 C106.3005,148.2013 106.8875,146.8393 106.5035,145.5623 L106.4075,145.2443 C105.8195,143.2753 105.2625,141.4153 104.9985,139.4493 C104.8505,138.3353 104.0365,137.5273 102.9265,137.3923" id="Fill-6" fill="#9F9F9F"></path>
                <path d="M124.9578,118.4919 L124.9558,118.3959 C124.9338,116.6969 124.9098,114.9389 124.7048,113.2029 C124.5728,112.0899 123.7758,111.2789 122.6748,111.1379 C121.5228,110.9879 120.3998,111.6109 120.0088,112.6149 C119.8658,112.9779 119.8188,113.3789 119.8678,113.7989 C120.0608,115.4369 120.0858,117.1329 120.1088,118.7709 C119.8128,118.5739 119.4728,118.4329 119.0828,118.3829 C118.0208,118.2419 116.8518,118.9099 116.4748,119.8709 C116.3868,120.0959 116.3408,120.3319 116.3408,120.5719 C116.3368,121.6009 116.4638,122.5959 116.6078,123.5639 C116.3848,123.4099 116.1268,123.2869 115.8378,123.2069 C114.7418,122.9059 113.3658,123.2929 112.8498,124.6089 C112.7828,124.7769 112.7338,124.9589 112.7038,125.1459 C112.5328,126.1809 112.5718,127.2619 112.7068,128.3359 C112.4198,128.0989 112.0658,127.9389 111.6608,127.8689 C110.4638,127.6719 109.2378,128.3419 108.8138,129.4279 L108.8128,129.4299 C108.6868,129.7519 108.6308,130.1029 108.6468,130.4709 L108.6808,131.2519 C108.7048,131.8339 108.7298,132.4199 108.7638,133.0099 C108.3958,132.4779 107.8188,132.1209 107.1188,132.0329 C105.9738,131.8899 104.8598,132.5079 104.4708,133.5019 C104.3258,133.8709 104.2798,134.2729 104.3338,134.6989 L104.3598,134.9059 C104.6708,137.3789 104.9918,139.9329 105.7618,142.3469 C106.0678,143.3059 106.8218,143.8979 107.7778,143.9289 C108.8458,143.9649 109.8988,143.2729 110.2848,142.2889 C110.4878,141.7689 110.4998,141.1989 110.3218,140.6369 C110.2078,140.2809 110.1148,139.9079 110.0238,139.5349 C110.4218,140.1889 111.0758,140.5779 111.8608,140.5959 C112.9288,140.6149 113.9418,139.9509 114.3228,138.9799 C114.5288,138.4469 114.5338,137.8669 114.3358,137.2949 C113.8388,135.8609 113.6758,134.3079 113.5988,132.7559 C113.9408,134.0149 115.0328,134.8099 116.2608,134.6559 C117.1328,134.5449 117.9368,133.9139 118.2608,133.0859 C118.4148,132.6889 118.4498,132.2689 118.3638,131.8709 C118.0838,130.5759 117.8668,129.4179 117.7018,128.3379 L117.6718,128.1379 C117.6018,127.6889 117.5368,127.2319 117.5058,126.8009 C117.8708,127.1949 118.3708,127.4589 118.9558,127.5309 C120.1148,127.6719 121.1988,127.0679 121.5918,126.0639 C121.7368,125.6949 121.7808,125.2889 121.7268,124.8589 C121.6648,124.3939 121.5758,123.9179 121.4888,123.4389 C121.3378,122.6229 121.1818,121.7769 121.1838,121.0249 C121.1838,120.9139 121.1698,120.8099 121.1608,120.7049 C121.6648,121.0329 122.2758,121.1989 122.8368,121.1309 C123.7288,121.0189 124.4288,120.4709 124.7598,119.6269 C124.8958,119.2749 124.9648,118.8959 124.9578,118.4919" id="Fill-8" fill="#9F9F9F"></path>
            </g>
        </g>
    </g>
</svg>