<?xml version="1.0" encoding="UTF-8"?>
<svg width="253px" height="148px" viewBox="0 0 253 148" version="1.1" xmlns="http://www.w3.org/2000/svg" xmlns:xlink="http://www.w3.org/1999/xlink">
    <!-- Generator: Sketch 63 (92445) - https://sketch.com -->
    <title>white arrow 2</title>
    <desc>Created with Sketch.</desc>
    <defs>
        <polygon id="path-1" points="0.840398495 0.427688566 121.793347 0.427688566 121.793347 296.999545 0.840398495 296.999545"></polygon>
        <polygon id="path-3" points="0 0.130433515 39.3889746 0.130433515 39.3889746 43.6727917 0 43.6727917"></polygon>
    </defs>
    <g id="Page-1" stroke="none" stroke-width="1" fill="none" fill-rule="evenodd">
        <g id="Komunitii-Homepage" transform="translate(-1187.000000, -1759.000000)">
            <g id="white-arrow-2" transform="translate(1343.500000, 1833.000000) rotate(-90.000000) translate(-1343.500000, -1833.000000) translate(1270.000000, 1677.000000)">
                <g id="Group-3" transform="translate(25.000000, 15.000000)">
                    <mask id="mask-2" fill="white">
                        <use xlink:href="#path-1"></use>
                    </mask>
                    <g id="Clip-2"></g>
                    <path d="M5.37920408,0.809387395 C5.37920408,0.809387395 6.70377551,1.5431521 9.18859184,2.91584118 C10.4334898,3.60218571 11.9696939,4.44576555 13.7747959,5.44158908 C15.5724286,6.56968992 17.6364694,7.86251345 19.9494898,9.31257227 C24.5058163,12.2925555 29.7966327,16.1261017 35.6202653,20.8830933 C38.5208776,23.2690765 41.4687959,25.9695303 44.566102,28.8197319 C47.543898,31.7922277 50.7582245,34.8420933 53.8057347,38.3037655 C57.0175714,41.6256731 60.0376939,45.364379 63.2545102,49.1579924 C66.2895714,53.0938664 69.479,57.1270765 72.4518163,61.4947235 C78.4646735,70.1751101 84.3480612,79.6441689 89.8679388,89.7596395 C95.3629184,99.8651269 100.374878,110.746808 104.926224,121.870581 C109.567204,133.179043 113.558347,144.8469 116.593408,156.961505 C119.670796,169.038673 121.398714,181.565085 121.737327,194.051564 C121.93402,200.296051 121.602878,206.535547 120.945571,212.682698 C120.081612,218.807387 119.00602,224.862194 117.285571,230.674908 C116.862306,232.129959 116.44402,233.577522 116.025735,235.020093 L115.985898,235.154866 C116.070551,234.937732 115.829041,235.60411 115.83651,235.579152 L115.741898,235.828732 L115.557653,236.3229 L115.179204,237.306245 L114.422306,239.265446 C113.879531,240.590715 113.503571,241.811161 112.831327,243.208808 C112.156592,244.606455 111.481857,245.996614 110.812102,247.379287 C108.090755,252.885018 105.033286,257.609564 101.68202,262.164396 C94.8574898,271.059421 87.034551,278.40206 78.8281837,283.74806 C70.6965102,289.226337 62.2710408,292.690505 54.5999796,294.849371 C50.6636122,295.653018 47.0459388,296.516564 43.5701837,296.696261 C40.1516939,297.180446 36.9572857,296.963312 34.1089592,296.865976 C31.2631224,296.923379 28.7484286,296.219564 26.5798163,295.930051 C24.3987551,295.653018 22.6085918,295.069001 21.167,294.599791 C18.3037347,293.688824 16.7774898,293.199648 16.7774898,293.199648 C15.1715714,292.688009 14.2827143,290.9709 14.7931224,289.36111 C15.2338163,287.978438 16.5683469,287.124875 17.9551633,287.242177 L18.3709592,287.277118 C18.3709592,287.277118 19.8100612,287.399413 22.509,287.629026 C23.8460204,287.731354 25.4643878,287.990917 27.413898,287.861135 C28.3724694,287.843665 29.4057347,287.823698 30.5087143,287.803732 C31.0564694,287.791253 31.6191633,287.821203 32.1967959,287.788757 C32.7794082,287.718875 33.3769592,287.644001 33.989449,287.566631 C35.2044694,287.421875 36.4892041,287.267135 37.8336939,287.107404 C39.1732041,286.98511 40.5475714,286.518396 41.9891633,286.256337 C44.8872857,285.782135 47.8949592,284.629076 51.1043061,283.585833 C57.4657347,281.182379 64.2703469,277.52853 71.0376122,272.574371 C77.7177347,267.525371 84.4526327,261.235959 90.1393265,253.45406 C92.9951224,249.645471 95.7936531,245.352698 97.9498163,241.059925 C98.490102,239.986732 99.0378571,238.908547 99.5856122,237.827866 C100.143327,236.749682 100.618878,235.30711 101.141735,234.054219 C101.617286,232.858732 102.095327,231.653261 102.573367,230.447791 C102.971735,229.189908 103.372592,227.927034 103.778429,226.659169 C106.957898,216.503766 108.665898,205.447379 108.952224,194.044076 C109.233571,182.638278 108.135571,170.903034 105.919653,159.297572 C103.741082,147.702093 100.531735,136.129076 96.7472449,125.085169 C92.7436531,113.906488 88.3192857,103.21948 83.3695714,93.1139924 C80.8598571,88.0924462 78.3426735,83.1757235 75.6561837,78.4861185 C74.371449,76.1026311 72.907449,73.8663958 71.5231224,71.6201773 C70.1537347,69.3639756 68.7519796,67.1651773 67.2780204,65.0587235 C64.464551,60.7484798 61.4419388,56.7701773 58.5637347,52.8817235 C55.5087551,49.1405218 52.643,45.4442445 49.5905102,42.1647655 C46.6575306,38.7729756 43.5328367,35.8304294 40.6596122,32.9353034 C37.6643878,30.1749504 34.8160612,27.5518664 32.0200204,25.2407571 C26.437898,20.6110513 21.2267551,16.9596983 16.8646327,14.2118244 C14.6686327,12.8740765 12.7066735,11.6785891 11.0036531,10.6378412 C9.18112245,9.68694202 7.62997959,8.87580756 6.37263265,8.21941261 C3.85046939,6.91910168 2.5034898,6.22526975 2.5034898,6.22526975 C0.999653061,5.45157227 0.407081633,3.60218571 1.17891837,2.09721933 C1.9507551,0.587261345 3.79320408,-0.00673865546 5.29953061,0.766958824 C5.32193878,0.776942017 5.35679592,0.796908403 5.37920408,0.809387395" id="Fill-1" fill="#FFFFFF" mask="url(#mask-2)"></path>
                </g>
                <g id="Group-6" transform="translate(0.000000, 0.000000)">
                    <mask id="mask-4" fill="white">
                        <use xlink:href="#path-3"></use>
                    </mask>
                    <g id="Clip-5"></g>
                    <path d="M36.38775,6.29175 C31.17275,6.43425 26.01525,7.11425 20.87775,7.99425 C18.30775,8.41425 15.75275,8.97425 13.19775,9.53675 C10.64775,10.14925 8.10525,10.82425 5.57025,11.56925 L10.03025,5.87925 C10.44275,7.14675 10.88275,8.39925 11.33275,9.63925 L12.72775,13.32675 L14.12775,16.96925 C14.59025,18.17425 15.03525,19.38175 15.47025,20.58925 C16.33525,23.00925 17.25525,25.38925 17.89025,27.89925 C18.24025,29.14425 18.48525,30.43675 18.71525,31.75675 C18.93025,33.08175 19.09775,34.44175 19.13275,35.89675 L10.41025,39.89925 C10.41525,38.73425 10.51525,37.52425 10.77775,36.25175 C11.18775,34.24925 13.14275,32.95425 15.15025,33.36425 C15.62525,33.46175 16.07525,33.65425 16.45775,33.90925 C17.54025,34.62925 18.46275,35.41175 19.28775,36.23925 C20.99025,37.93675 20.99025,40.69425 19.29025,42.39425 C17.68025,44.00925 15.11525,44.09425 13.40525,42.64925 L10.56775,40.23925 C8.17025,38.20425 6.37025,35.76175 4.94025,33.15175 C3.49775,30.54425 2.55525,27.71175 1.77525,24.85675 C0.99275,21.99425 0.52525,19.05175 0.25025,16.09925 C-0.00225,13.14175 -0.04225,10.17425 0.03525,7.23175 L0.08025,5.54175 C0.14025,3.26675 2.03525,1.47175 4.31025,1.53175 C4.36525,1.53425 4.44025,1.53675 4.49775,1.54175 C7.13275,1.73175 9.76275,1.85675 12.38275,1.91675 C14.99775,1.92425 17.61525,1.93175 20.21525,1.79925 C25.42275,1.57175 30.60775,1.14675 35.73525,0.18425 C37.40775,-0.13075 39.02025,0.96925 39.33525,2.64175 C39.65025,4.31425 38.54775,5.92675 36.87525,6.23925 C36.71775,6.26925 36.54275,6.28675 36.38775,6.29175" id="Fill-4" fill="#FFFFFF" mask="url(#mask-4)"></path>
                </g>
            </g>
        </g>
    </g>
</svg>