<?xml version="1.0" encoding="UTF-8"?>
<svg width="202px" height="173px" viewBox="0 0 202 173" version="1.1" xmlns="http://www.w3.org/2000/svg" xmlns:xlink="http://www.w3.org/1999/xlink">
    <!-- Generator: Sketch 63 (92445) - https://sketch.com -->
    <title>white arrow 1</title>
    <desc>Created with Sketch.</desc>
    <defs>
        <polygon id="path-1" points="0.000189969507 0.702333333 406.234493 0.702333333 406.234493 266 0.000189969507 266"></polygon>
    </defs>
    <g id="Page-1" stroke="none" stroke-width="1" fill="none" fill-rule="evenodd">
        <g id="Komunitii-Homepage" transform="translate(0.000000, -2321.000000)">
            <g id="white-arrow-1" transform="translate(-80.000000, 2231.000000)">
                <g id="Group-3">
                    <mask id="mask-2" fill="white">
                        <use xlink:href="#path-1"></use>
                    </mask>
                    <g id="Clip-2"></g>
                    <path d="M268.374765,162.501083 C268.374765,162.501083 266.584816,164.014779 263.228968,166.856973 C261.552276,168.276834 259.252671,169.879426 256.672387,171.84254 C255.374858,172.820392 253.89021,173.709349 252.356319,174.746466 C250.810118,175.763828 249.18513,176.875024 247.363173,177.875101 C240.240308,182.132217 231.172381,186.670837 220.213558,190.372355 C209.269508,194.056588 196.412403,196.834578 182.191293,197.63217 C167.992342,198.187768 152.397378,196.985207 136.753173,191.915683 C128.965539,189.367339 121.187754,185.762125 114.138752,180.603705 C107.109446,175.511957 100.813847,168.639825 96.8892544,160.305853 C92.9178814,152.043492 90.9851302,142.632894 91.5317172,133.160563 C92.1029252,123.703048 95.2544177,114.14923 101.473691,106.360979 C107.599405,98.6640927 116.674718,93.3723291 126.316316,91.2092004 C135.957913,88.9942159 146.50064,89.7251361 155.72368,94.2168383 C158.018361,95.3403812 160.199784,96.7157952 162.23102,98.2986326 C163.2848,99.0986939 164.151461,99.8864085 165.205241,100.891424 C166.030046,101.74581 166.830229,102.494016 167.711662,103.578049 C171.136448,107.538847 173.598552,111.941653 175.459902,116.625963 C179.116126,125.962481 180.029566,136.168201 178.985634,145.734366 C177.934316,155.500547 175.248161,164.627172 171.961253,173.272279 C168.666958,181.863061 165.14615,190.221726 160.928567,198.244563 C152.559877,214.20628 141.593668,228.392552 128.647928,239.025466 C115.731733,249.705296 101.148694,256.661385 87.2328844,260.604897 C73.262909,264.644713 60.0512615,265.812704 48.361194,266.000372 C36.3929088,265.990495 26.0693087,263.086569 18.4466362,259.031937 C10.7624111,254.99706 5.88498402,249.806539 3.36379001,245.882781 C2.07610987,243.919668 1.3325546,242.275097 0.817974966,241.186125 C0.362485814,240.067521 0.131048083,239.492168 0.131048083,239.492168 C-0.235805342,238.588395 0.195062775,237.558687 1.09373056,237.193226 C1.94808048,236.845052 2.91322506,237.21792 3.32439635,238.02292 L3.37610053,238.126631 C3.37610053,238.126631 3.62477298,238.620496 4.10734527,239.576125 C4.64408384,240.502122 5.41226014,241.889883 6.68516766,243.517168 C9.17681643,246.756922 13.6504585,251.08318 20.7782482,254.271078 C27.8494095,257.421937 37.3432807,259.693716 48.2553235,259.212198 C59.3544862,258.701047 71.9900015,257.088578 85.012067,253.105557 C97.9898147,249.07068 111.464907,242.601048 123.379026,232.605221 C135.399016,222.76496 145.794017,209.630621 153.852482,194.468965 C157.882945,186.927646 161.381594,178.773935 164.626647,170.464656 C167.787987,162.197356 170.538157,153.628798 171.596862,144.986161 C172.724505,136.212649 172.025268,127.300855 169.014115,119.107635 C167.50977,115.070288 165.372664,111.158877 162.713592,107.968509 C162.147308,107.203019 161.260951,106.319 160.470616,105.472022 C159.835393,104.85716 158.985967,104.034875 158.18086,103.410135 C156.541099,102.074231 154.765922,100.893893 152.870102,99.9086325 C137.563205,92.026547 116.448205,96.3009486 105.376125,109.667405 C99.8733239,116.255564 96.8153913,124.888324 96.1752444,133.474168 C95.5375596,142.106928 97.1797826,150.826114 100.715363,158.48843 C104.19924,166.195193 109.847305,172.583337 116.416197,177.514579 C122.98509,182.463107 130.423104,185.910284 137.905437,188.411711 C152.94889,193.370115 168.213931,194.636879 182.031256,194.150422 C195.895361,193.434318 208.459476,190.784732 219.167164,187.233843 C229.901935,183.707646 238.743349,179.215944 245.652011,174.995868 C247.422264,174.010607 248.99801,172.916696 250.497431,171.91415 C251.98208,170.89185 253.437183,170.007831 254.678083,169.05961 C257.154959,167.143414 259.3093,165.637126 260.978606,164.202448 C264.317218,161.338031 266.094857,159.811988 266.094857,159.811988 C266.833488,159.177372 267.943897,159.261329 268.576657,160.002126 C269.209418,160.745393 269.123244,161.856589 268.384613,162.491206 L268.374765,162.501083 Z" id="Fill-1" fill="#FFFFFF" mask="url(#mask-2)"></path>
                </g>
                <path d="M262.704538,149.2301 C264.110512,149.158339 265.438794,149.012344 266.804669,148.767368 C268.160519,148.554561 269.503838,148.269994 270.834627,147.933462 C273.496203,147.255449 276.100137,146.344833 278.611342,145.213986 C279.814315,144.672071 281.237832,145.196665 281.784182,146.386899 C281.987184,146.824886 282.04232,147.297515 281.96964,147.737976 L281.834306,148.58673 C281.297981,151.900085 280.957138,155.235711 280.262923,158.45256 C280.122576,159.264196 279.892007,160.051087 279.701536,160.850351 C279.513572,161.652089 279.305558,162.443929 279.034889,163.220922 C278.503576,164.782331 277.811867,166.304148 276.824427,167.771527 L270.817083,166.254658 C271.37847,165.499936 271.97745,164.757586 272.801988,164.079573 C273.72176,163.322376 275.090142,163.446101 275.857037,164.354243 C276.03247,164.562101 276.165298,164.802127 276.248003,165.044628 C276.591351,166.049275 276.706636,166.992059 276.784328,167.924946 C276.91465,169.491304 275.731727,170.862177 274.145307,170.990851 C272.606505,171.114576 271.250655,170.018373 271.055172,168.523775 L270.77949,166.405603 C270.543908,164.609116 270.654181,162.876966 270.959936,161.189357 C271.110308,160.345553 271.328347,159.51907 271.578966,158.70001 C271.829585,157.883425 272.05013,157.056943 272.363404,156.257679 C273.508734,153.025982 275.162821,149.957602 276.779315,146.916442 L280.002279,150.29166 C277.142713,150.598498 274.323247,150.939979 271.526336,151.343322 C270.12788,151.546231 268.731931,151.756564 267.3435,151.989167 C265.962588,152.192076 264.539071,152.449424 263.183221,152.733991 L263.173196,152.736466 C262.200793,152.941849 261.245934,152.330648 261.040426,151.370542 C260.832412,150.415385 261.451442,149.470126 262.423844,149.267217 C262.514067,149.247421 262.614315,149.235049 262.704538,149.2301" id="Fill-4" fill="#FFFFFF"></path>
            </g>
        </g>
    </g>
</svg>