<?xml version="1.0" encoding="UTF-8"?>
<svg width="126px" height="60px" viewBox="0 0 126 60" version="1.1" xmlns="http://www.w3.org/2000/svg" xmlns:xlink="http://www.w3.org/1999/xlink">
    <!-- Generator: Sketch 63 (92445) - https://sketch.com -->
    <title>yellow arrow</title>
    <desc>Created with Sketch.</desc>
    <defs>
        <polygon id="path-1" points="0.337537101 0.171363432 48.917 0.171363432 48.917 118.999818 0.337537101 118.999818"></polygon>
        <polygon id="path-3" points="0 0.0521734061 15.7555899 0.0521734061 15.7555899 17.4691167 0 17.4691167"></polygon>
    </defs>
    <g id="Page-1" stroke="none" stroke-width="1" fill="none" fill-rule="evenodd">
        <g id="Komunitii-Homepage" transform="translate(-1186.000000, -1027.000000)">
            <g id="yellow-arrow" transform="translate(1248.500000, 1057.000000) rotate(-90.000000) translate(-1248.500000, -1057.000000) translate(1219.000000, 994.000000)">
                <g id="Group-3" transform="translate(10.000000, 6.948000)">
                    <mask id="mask-2" fill="white">
                        <use xlink:href="#path-1"></use>
                    </mask>
                    <g id="Clip-2"></g>
                    <path d="M2.1605,0.3243 C2.1605,0.3243 2.6925,0.6183 3.6905,1.1683 C4.1905,1.4433 4.8075,1.7813 5.5325,2.1803 C6.2545,2.6323 7.0835,3.1503 8.0125,3.7313 C9.8425,4.9253 11.9675,6.4613 14.3065,8.3673 C15.4715,9.3233 16.6555,10.4053 17.8995,11.5473 C19.0955,12.7383 20.3865,13.9603 21.6105,15.3473 C22.9005,16.6783 24.1135,18.1763 25.4055,19.6963 C26.6245,21.2733 27.9055,22.8893 29.0995,24.6393 C31.5145,28.1173 33.8775,31.9113 36.0945,35.9643 C38.3015,40.0133 40.3145,44.3733 42.1425,48.8303 C44.0065,53.3613 45.6095,58.0363 46.8285,62.8903 C48.0645,67.7293 48.7585,72.7483 48.8945,77.7513 C48.9735,80.2533 48.8405,82.7533 48.5765,85.2163 C48.2295,87.6703 47.7975,90.0963 47.1065,92.4253 C46.9365,93.0083 46.7685,93.5883 46.6005,94.1663 L46.5845,94.2203 C46.6185,94.1333 46.5215,94.4003 46.5245,94.3903 L46.4865,94.4903 L46.4125,94.6883 L46.2605,95.0823 L45.9565,95.8673 C45.7385,96.3983 45.5875,96.8873 45.3175,97.4473 C45.0465,98.0073 44.7755,98.5643 44.5065,99.1183 C43.4135,101.3243 42.1855,103.2173 40.8395,105.0423 C38.0985,108.6063 34.9565,111.5483 31.6605,113.6903 C28.3945,115.8853 25.0105,117.2733 21.9295,118.1383 C20.3485,118.4603 18.8955,118.8063 17.4995,118.8783 C16.1265,119.0723 14.8435,118.9853 13.6995,118.9463 C12.5565,118.9693 11.5465,118.6873 10.6755,118.5713 C9.7995,118.4603 9.0805,118.2263 8.5015,118.0383 C7.3515,117.6733 6.7385,117.4773 6.7385,117.4773 C6.0935,117.2723 5.7365,116.5843 5.9415,115.9393 C6.1185,115.3853 6.6545,115.0433 7.2115,115.0903 L7.3785,115.1043 C7.3785,115.1043 7.9565,115.1533 9.0405,115.2453 C9.5775,115.2863 10.2275,115.3903 11.0105,115.3383 C11.3955,115.3313 11.8105,115.3233 12.2535,115.3153 C12.4735,115.3103 12.6995,115.3223 12.9315,115.3093 C13.1655,115.2813 13.4055,115.2513 13.6515,115.2203 C14.1395,115.1623 14.6555,115.1003 15.1955,115.0363 C15.7335,114.9873 16.2855,114.8003 16.8645,114.6953 C18.0285,114.5053 19.2365,114.0433 20.5255,113.6253 C23.0805,112.6623 25.8135,111.1983 28.5315,109.2133 C31.2145,107.1903 33.9195,104.6703 36.2035,101.5523 C37.3505,100.0263 38.4745,98.3063 39.3405,96.5863 C39.5575,96.1563 39.7775,95.7243 39.9975,95.2913 C40.2215,94.8593 40.4125,94.2813 40.6225,93.7793 C40.8135,93.3003 41.0055,92.8173 41.1975,92.3343 C41.3575,91.8303 41.5185,91.3243 41.6815,90.8163 C42.9585,86.7473 43.6445,82.3173 43.7595,77.7483 C43.8725,73.1783 43.4315,68.4763 42.5415,63.8263 C41.6665,59.1803 40.3775,54.5433 38.8575,50.1183 C37.2495,45.6393 35.4725,41.3573 33.4845,37.3083 C32.4765,35.2963 31.4655,33.3263 30.3865,31.4473 C29.8705,30.4923 29.2825,29.5963 28.7265,28.6963 C28.1765,27.7923 27.6135,26.9113 27.0215,26.0673 C25.8915,24.3403 24.6775,22.7463 23.5215,21.1883 C22.2945,19.6893 21.1435,18.2083 19.9175,16.8943 C18.7395,15.5353 17.4845,14.3563 16.3305,13.1963 C15.1275,12.0903 13.9835,11.0393 12.8605,10.1133 C10.6185,8.2583 8.5255,6.7953 6.7735,5.6943 C5.8915,5.1583 5.1035,4.6793 4.4195,4.2623 C3.6875,3.8813 3.0645,3.5563 2.5595,3.2933 C1.5465,2.7723 1.0055,2.4943 1.0055,2.4943 C0.4015,2.1843 0.1635,1.4433 0.4735,0.8403 C0.7835,0.2353 1.5235,-0.0027 2.1285,0.3073 C2.1375,0.3113 2.1515,0.3193 2.1605,0.3243" id="Fill-1" fill="#EFCA02" mask="url(#mask-2)"></path>
                </g>
                <g id="Group-6" transform="translate(0.000000, 0.948000)">
                    <mask id="mask-4" fill="white">
                        <use xlink:href="#path-3"></use>
                    </mask>
                    <g id="Clip-5"></g>
                    <path d="M14.5551,2.5167 C12.4691,2.5737 10.4061,2.8457 8.3511,3.1977 C7.3231,3.3657 6.3011,3.5897 5.2791,3.8147 C4.2591,4.0597 3.2421,4.3297 2.2281,4.6277 L4.0121,2.3517 C4.1771,2.8587 4.3531,3.3597 4.5331,3.8557 L5.0911,5.3307 L5.6511,6.7877 C5.8361,7.2697 6.0141,7.7527 6.1881,8.2357 C6.5341,9.2037 6.9021,10.1557 7.1561,11.1597 C7.2961,11.6577 7.3941,12.1747 7.4861,12.7027 C7.5721,13.2327 7.6391,13.7767 7.6531,14.3587 L4.1641,15.9597 C4.1661,15.4937 4.2061,15.0097 4.3111,14.5007 C4.4751,13.6997 5.2571,13.1817 6.0601,13.3457 C6.2501,13.3847 6.4301,13.4617 6.5831,13.5637 C7.0161,13.8517 7.3851,14.1647 7.7151,14.4957 C8.3961,15.1747 8.3961,16.2777 7.7161,16.9577 C7.0721,17.6037 6.0461,17.6377 5.3621,17.0597 L4.2271,16.0957 C3.2681,15.2817 2.5481,14.3047 1.9761,13.2607 C1.3991,12.2177 1.0221,11.0847 0.7101,9.9427 C0.3971,8.7977 0.2101,7.6207 0.1001,6.4397 C-0.0009,5.2567 -0.0169,4.0697 0.0141,2.8927 L0.0321,2.2167 C0.0561,1.3067 0.8141,0.5887 1.7241,0.6127 C1.7461,0.6137 1.7761,0.6147 1.7991,0.6167 C2.8531,0.6927 3.9051,0.7427 4.9531,0.7667 C5.9991,0.7697 7.0461,0.7727 8.0861,0.7197 C10.1691,0.6287 12.2431,0.4587 14.2941,0.0737 C14.9631,-0.0523 15.6081,0.3877 15.7341,1.0567 C15.8601,1.7257 15.4191,2.3707 14.7501,2.4957 C14.6871,2.5077 14.6171,2.5147 14.5551,2.5167" id="Fill-4" fill="#EFCA02" mask="url(#mask-4)"></path>
                </g>
            </g>
        </g>
    </g>
</svg>